<svg width="1024" height="1024" viewBox="0 0 1024 1024" fill="none" xmlns="http://www.w3.org/2000/svg">
<rect width="1024" height="1024" fill="url(#paint0_linear_599_8056)"/>
<g clip-path="url(#clip0_599_8056)">
<path d="M339.378 467.673L350.058 460.146L351.568 459.426L352.295 459.189C364.343 452.658 376.422 446.175 388.431 439.549C392.265 437.438 395.901 434.955 399.625 432.638C399.735 432.362 399.838 432.085 399.941 431.808H399.783L400.652 430.938C400.896 430.9 401.132 430.828 401.356 430.725L402.194 430.124L402.985 429.46L403.815 428.535L403.775 428.677C404.068 428.377 404.36 428.068 404.66 427.768L404.566 427.871L405.467 426.985L405.348 427.056C405.641 426.772 405.933 426.471 406.226 426.179L406.123 426.242L407.127 425.451L408.439 423.735C408.763 423.214 409.088 422.7 409.42 422.154V422.281C413.08 417.497 413.372 412.002 412.937 406.293L411.04 401.423H411.111L410.21 399.802L410.281 399.889L409.427 398.205V398.339L408.518 396.615L407.783 395.975L406.858 394.48L402.281 389.689L399.206 387.127H399.158L397.688 386.226L397.585 386.281C397.308 386.02 397.032 385.759 396.747 385.491L396.708 385.664C396.423 385.372 396.131 385.079 395.838 384.795H395.972L393.506 383.213L393.593 383.269C394.66 382.794 395.735 381.901 396.803 381.901C415.167 381.901 433.539 382.083 451.911 382.201C451.911 387.333 452.18 392.48 451.769 397.596C451.042 406.491 450.488 415.473 448.788 424.202C445.824 439.414 435.444 449.646 423.388 458.13C410.914 466.906 397.988 475.042 385.292 483.518C383.955 484.551 382.693 485.677 381.513 486.886L375.102 491.488C374.884 491.534 374.661 491.56 374.438 491.567C372.067 487.661 370.209 483.115 364.525 482.996C364.272 482.996 364.09 482.34 363.774 482.127C362.548 481.296 361.276 480.545 360.027 479.715C356.129 477.185 351.331 475.374 348.611 471.903C345.892 468.432 343.544 466.819 339.378 467.673Z" fill="#CF8B2F"/>
<path d="M375.078 491.551L381.497 486.95L382.146 488.001L382.58 487.574L381.521 486.918C382.7 485.708 383.963 484.583 385.3 483.55C397.996 475.074 410.921 466.946 423.396 458.161C435.452 449.677 445.832 439.446 448.796 424.234C450.496 415.536 451.049 406.522 451.777 397.627C452.188 392.528 451.895 387.349 451.919 382.233L463.777 381.814L466.623 385.427L466.338 410.152C465.484 420.921 462.188 431.017 457.864 440.83L456.97 442.364L456.891 442.324L455.413 444.388L455.239 444.68L453.943 446.428L454.101 446.341L453.215 447.329V447.195L452.164 448.381C452.128 448.383 452.094 448.393 452.063 448.41C452.032 448.428 452.005 448.451 451.984 448.48C451.963 448.508 451.948 448.541 451.941 448.576C451.934 448.611 451.934 448.647 451.943 448.681L450.749 450.262H450.883L450.045 451.282V451.148L449.373 451.939L448.227 453.314L448.409 453.433L447.579 454.406L447.808 454.342L446.836 455.22L446.219 455.932L445.428 456.865C444.551 457.837 443.681 458.81 442.804 459.774V460.019H443.049L441.824 460.81L439.049 463.562L438.258 464.787V464.582L412.052 483.684L410.328 484.744L410.028 484.878L407.988 486.285L407.696 486.459L404.961 488.373L405.048 488.31L402.573 489.954V489.907L400.779 490.982L400.502 491.132L399.261 491.97L399.134 492.042L396.099 494.192C396.059 494.183 396.017 494.182 395.977 494.189C395.936 494.196 395.898 494.211 395.863 494.233C395.828 494.255 395.799 494.284 395.775 494.317C395.752 494.351 395.736 494.389 395.727 494.429L393.727 495.813L393.561 495.948L392.249 497.047L385.925 501.901H385.972L384.201 503.332L381.237 505.902L379.576 507.396L375.418 511.089L374.446 511.714C374.398 507.958 374.256 504.194 374.375 500.439C374.375 499.545 375.3 498.667 375.853 497.814C377.434 495.339 379.078 492.88 380.691 490.421L379.695 489.567L375.236 491.733L375.078 491.551Z" fill="#E7B554"/>
<path d="M531.764 364.38C496.321 364.243 460.884 364.103 425.452 363.961C424.656 363.916 423.864 363.824 423.08 363.684H421.499C403.206 363.834 384.905 364.008 366.612 364.087C365.513 364.087 364.422 363.407 363.323 363.043L362.533 362.071L362.374 362.284C362.43 358.742 362.604 355.168 362.517 351.666C362.351 344.597 362.035 337.536 361.813 330.468C361.758 328.617 361.608 326.617 364.28 326.38C369.632 326.593 374.984 326.752 380.328 327.052C389.98 327.59 399.625 328.214 409.269 328.807C412.787 329.092 416.313 329.337 419.831 329.669C424.74 330.136 429.642 330.673 434.543 331.179L424.266 331.717C427.128 336.785 427.104 336.738 422.068 339.853C418.906 341.838 416.732 344.383 417.617 348.598C417.862 349.776 417.198 351.128 417.04 352.409C416.779 354.552 416.582 356.702 416.353 358.845L372.628 361.747L372.683 362.869H378.162C418.985 362.869 459.809 362.869 500.632 362.869C502.34 362.869 504.047 363.067 505.755 363.075C512.261 363.075 518.775 362.988 525.273 363.146C527.447 363.217 529.59 363.953 531.764 364.38Z" fill="#C3812A"/>
<path d="M531.764 364.38C529.613 363.953 527.471 363.217 525.313 363.162C518.814 363.004 512.3 363.114 505.794 363.091C504.087 363.091 502.379 362.885 500.672 362.885C459.848 362.885 419.025 362.885 378.201 362.885H372.723L372.667 361.762L416.345 358.845C428.171 358.613 439.995 358.381 451.816 358.149C456.117 358.07 460.417 358.03 464.726 357.975C465.066 358.173 465.406 358.529 465.745 358.529C480.955 358.529 496.163 358.529 511.368 358.529L551.638 358.41C555.843 358.489 560.049 358.647 564.286 358.631C584.54 358.552 604.791 358.452 625.039 358.331C623.64 358.782 622.241 359.612 620.834 359.628C610.841 359.746 600.849 359.683 590.856 359.73C589.532 359.796 588.213 359.933 586.904 360.142C586.904 360.569 586.904 360.995 586.904 361.43C588.471 361.726 590.055 361.924 591.647 362.023C604.003 362.079 616.367 362.023 628.723 362.095C630.404 362.204 632.075 362.423 633.727 362.751L618.707 362.854C608.193 363.107 597.679 363.589 587.172 363.557C571.259 363.51 555.345 363.059 539.44 362.917C537.946 362.917 536.451 363.874 534.949 364.387L531.764 364.38Z" fill="#B26F20"/>
<path d="M633.696 362.751C632.043 362.43 630.372 362.213 628.692 362.102C616.336 362.039 603.971 362.102 591.615 362.031C590.023 361.932 588.439 361.734 586.872 361.438C586.872 361.003 586.872 360.576 586.872 360.149C588.181 359.941 589.501 359.803 590.825 359.738C600.817 359.691 610.81 359.738 620.802 359.635C622.209 359.635 623.608 358.789 625.008 358.339L668.337 358.181H668.567L664.701 362.925L633.696 362.751Z" fill="#C3812A"/>
<path d="M534.926 364.435C536.428 363.921 537.922 362.956 539.416 362.964C555.322 363.107 571.235 363.557 587.149 363.605C597.655 363.605 608.169 363.154 618.684 362.901C618.684 363.328 618.684 363.763 618.739 364.19C595.133 364.311 571.525 364.424 547.914 364.53C543.622 364.506 539.282 364.435 534.926 364.435Z" fill="#C3812A"/>
<path d="M364.28 326.372C361.608 326.617 361.758 328.617 361.813 330.468C362.035 337.536 362.351 344.597 362.517 351.665C362.604 355.2 362.43 358.742 362.374 362.284C361.584 360.766 360.319 359.288 360.185 357.714C359.679 351.523 359.536 345.293 359.26 339.078C359.26 338.588 359.26 338.098 359.26 337.607L359.378 327.242L361.971 323.952L363.552 324.039C363.566 324.289 363.609 324.535 363.679 324.775C363.853 325.304 364.066 325.842 364.28 326.372Z" fill="#CF8B2F"/>
<path d="M618.762 364.15C618.762 363.723 618.762 363.289 618.707 362.862L633.727 362.759L664.756 362.893C663.589 363.306 662.38 363.589 661.151 363.739C655.017 363.81 648.882 363.739 642.747 363.739L632.312 363.929L626.612 364.071L621.932 364.127L618.762 364.15Z" fill="#CF8B2F"/>
<path d="M280.411 601.637L278.704 586.614C278.996 574.256 278.419 561.795 279.874 549.571C280.893 541 284.688 532.761 287.241 524.372L288.973 520.917V520.988L289.763 519.359V519.399C290.024 518.853 290.293 518.308 290.554 517.754V517.825C290.823 517.28 291.091 516.726 291.344 516.173V516.252L292.135 514.528V514.663L293.004 513.824L293.795 512.243L293.589 512.164C296.293 512.227 297.131 513.366 296.752 516.204C295.914 521.779 298.499 525.819 303.59 528.183C304.549 528.694 305.288 529.537 305.669 530.555C306.973 534.39 311.764 536.596 315.306 534.817C319.306 532.808 321.63 533.141 324.16 536.952C326.84 540.976 329.006 545.341 331.425 549.547C332.128 550.773 332.919 551.919 333.962 553.611L336.65 547.926C335.607 553.73 333.978 559.494 333.615 565.321C332.033 590.749 335.623 615.663 342.31 640.142C348.595 663.301 358.279 684.926 372.304 704.503L372.983 705.294L373.505 706.005L375.331 708.377V708.322L376.122 709.113L376.912 710.694L377.529 711.485L378.494 712.275L379.284 713.857L379.916 714.647L380.865 715.438H380.81L383.181 718.601L388.249 724.871C387.719 726.966 387.197 729.061 386.431 732.097C366.296 718.751 347.202 703.897 329.314 687.662C329.638 690.437 329.923 693.109 330.286 695.766C330.468 697.055 330.5 698.51 331.132 699.561C333.504 703.515 332.603 707.357 330.429 710.734C328.848 713.169 329.48 714.386 331.219 716.015C335.962 720.372 340.516 724.934 345.315 729.227C353.046 736.146 360.517 743.459 368.794 749.627C384.984 761.771 401.751 773.118 418.068 785.088C431.088 794.632 444.235 804.064 456.536 814.533C474.26 829.556 491.24 845.464 508.609 860.922C510.617 862.717 513.02 864.084 515.241 865.666L512.988 875.794C510.071 874.071 506.98 872.584 504.292 870.568C499.13 866.709 494.197 862.551 489.169 858.51C488.885 858.289 488.608 858.06 488.331 857.83H488.276L486.845 856.818L486.932 856.937L486.031 856.067L486.11 856.178L485.122 855.348L484.331 854.652L482.07 852.841C481.809 852.643 481.556 852.438 481.28 852.232L479.699 851.252L479.857 851.149L478.117 849.726V849.781L476.671 848.801V848.54L473.295 845.725L472.505 845.124L469.342 842.61V842.792L468.52 841.914H468.568L419.957 802.894H419.697L419.649 803.147L418.772 802.293V802.404L417.902 801.534L417.965 801.645L417.104 800.854L415.704 799.653L413.673 798.166L413.19 798.498C412.922 798.079 412.653 797.66 412.4 797.241C412.401 797.192 412.391 797.143 412.37 797.098C412.35 797.053 412.319 797.014 412.281 796.982C412.243 796.951 412.198 796.929 412.151 796.918C412.103 796.906 412.053 796.906 412.005 796.917L410.827 795.944L409.23 794.561L408.526 793.944L372.114 764.689C372.104 764.655 372.087 764.623 372.065 764.595C372.042 764.568 372.013 764.545 371.981 764.53C371.949 764.514 371.914 764.505 371.878 764.504C371.843 764.503 371.807 764.509 371.774 764.523L370.541 763.732L370.723 763.566L366.541 759.771L365.75 758.98L364.272 758.008L364.335 758.111L363.473 757.257L363.544 757.328L362.675 756.474V756.592L361.884 755.383L361.007 754.236L360.667 753.817V753.533H361.007L360.216 752.702L360.264 752.75L358.635 751.864L357.054 750.322L355.402 748.741C355.149 748.512 354.904 748.275 354.659 748.037L353.805 747.168C353.615 747.168 353.425 747.104 353.236 747.065L352.39 746.274L351.489 744.898L349.908 743.238L349.346 743.127C349.268 742.918 349.213 742.7 349.18 742.479L347.568 740.795L345.528 739.111L344.477 737.98L342.706 736.003L341.243 735.173L331.472 723.313C329.678 721.139 327.931 718.901 326.033 716.814C325.121 715.973 324.131 715.221 323.077 714.568L323.061 713.121L322.365 711.999L321.662 711.508C321.583 711.263 321.496 711.01 321.409 710.765C313.272 698.813 306.272 686.125 300.499 672.868C293.858 657.656 288.38 642.032 285.004 625.76C283.32 617.735 281.953 609.67 280.411 601.637Z" fill="#B26F20"/>
<path d="M512.917 875.85L515.162 865.721C517.162 863.642 518.988 861.349 521.194 859.522C538.855 844.937 556.555 830.397 574.295 815.901C574.603 815.577 574.911 815.245 575.227 814.921C575.544 814.596 575.71 814.517 575.955 814.32L578.397 812.738L579.188 811.948L579.979 811.157L581.56 810.366L582.35 809.576L583.931 808.785L584.722 807.994L585.512 807.204C589.212 807.994 589.908 809.694 588.675 815.11L587.544 816.344H587.299C587.294 816.265 587.294 816.186 587.299 816.107C587.006 816.423 586.714 816.739 586.414 817.047L586.651 816.945L580.809 821.578L580.856 821.539L577.639 824.053L577.749 823.958L575.204 825.539L574.508 826.243L573.623 827.192L573.789 827.026L572.8 827.911L572.927 827.864L572.049 828.591C571.985 828.773 571.94 828.961 571.915 829.153L568.753 831.659L568.832 831.612L567.852 832.458L568.073 832.363L566.8 833.264L563.227 836.055C562.935 836.443 562.634 836.846 562.342 837.202V836.972H562.104C547.348 849.038 532.591 861.085 517.834 873.114C516.403 874.276 514.569 874.948 512.917 875.85Z" fill="#E1A747"/>
<path d="M346.034 250.404L345.338 249.724C344.998 249.265 344.666 248.807 344.326 248.356C345.386 247.194 346.247 245.462 347.544 245.027C349.275 244.45 351.346 244.885 353.267 244.885C372.355 251.89 390.74 260.679 408.178 271.135C408.996 271.529 409.852 271.839 410.732 272.061L411.601 272.013H411.499C413.356 272.503 415.19 273.318 417.032 273.444C431.349 274.425 445.658 275.563 459.99 276.053C473.651 276.52 487.335 276.251 501.012 276.306L507.336 276.212L508.332 276.061L516.008 276.251L517.075 276.077L530.182 276.67L533.289 276.726H534.191H535.661L538.159 277.05H541.93H546.808L547.148 277.216L547.503 277.105L553.116 276.979L553.907 277.026H560.278H561.021H563.44H564.231L583.204 276.955L573.006 278.37C560.705 278.797 548.404 279.271 536.096 279.611C533.107 279.691 530.088 279.066 527.099 279.192C524.807 279.287 522.467 280.695 520.293 280.402C507.162 278.663 494.205 281.114 481.185 281.77C478.41 281.912 475.651 283.003 472.275 283.818C473.366 285.455 474.125 286.601 474.9 287.771C476.013 289.214 477.033 290.728 477.951 292.302C479.683 295.741 481.201 299.276 482.805 302.77L481.224 302.897C454.841 302.897 428.456 302.915 402.067 302.952C400.716 302.952 399.364 303.64 398.012 304.012C390.897 305.103 390.897 304.62 387.3 298.777C383.237 292.199 378.296 286.127 373.734 279.88L356.343 260.114L356.437 259.774L356.066 259.726V259.473H356.319L355.473 258.682L355.283 258.848L353.75 257.338L353.686 257.291C353.18 256.816 352.675 256.342 352.161 255.875L352.105 255.646L352.327 255.591L350.73 254.603L350.667 254.547L349.141 252.966C348.904 252.895 348.666 252.816 348.429 252.721L347.022 251.266L346.034 250.404Z" fill="#B26F20"/>
<path d="M669.942 337.497C669.578 342.454 669.223 347.42 668.843 352.377C668.701 354.314 668.527 356.244 668.361 358.181L625.031 358.339C604.783 358.439 584.532 358.539 564.278 358.639C560.073 358.639 555.867 358.497 551.63 358.418C552.824 358.07 554.001 357.461 555.219 357.422C559.029 357.287 562.848 357.208 566.65 357.422C569.607 357.572 570.966 356.702 571.797 353.579C573.275 348.044 575.196 342.336 581.56 340.311C587.394 338.461 593.331 336.896 599.22 335.22C601.299 334.627 603.394 334.081 605.481 333.52C605.387 333.077 605.3 332.642 605.213 332.199C603.829 332.128 602.454 332.002 601.07 331.994C593.702 331.994 586.342 331.994 578.982 331.994C575.884 331.994 572.785 331.915 569.686 331.875C567.978 331.875 566.279 331.962 564.579 331.938C551.503 331.764 538.428 331.58 525.352 331.385L500.845 331.424C497.478 331.638 494.102 332.081 490.734 332.017C483.817 331.907 476.908 331.495 469.991 331.266C465.153 331.116 460.299 331.061 455.453 330.966C454.899 329.606 454.346 328.246 453.334 325.787H602.216C621.764 325.787 641.314 325.766 660.867 325.724C662.422 325.588 663.964 325.324 665.476 324.933L666.922 324.87C667.989 326.38 669.665 327.779 669.966 329.432C670.456 332.017 670.005 334.785 669.942 337.497Z" fill="#FDF0AC"/>
<path d="M676.361 256.903L675.27 257.884L673.223 260.035L672.203 261.418H672.163L670.875 262.462L668.401 264.779L666.092 267.072L661.246 272.606L661.42 272.662L660.432 273.452L658.985 274.978C658.653 275.484 658.321 275.99 657.997 276.496C657.997 276.496 657.997 276.433 657.997 276.425L657.207 277.295L657.064 277.176C656.345 278.014 655.633 278.853 654.914 279.683H655.08L654.187 280.592L654.313 280.497L653.451 281.391V281.327L650.882 284.49L650.281 285.217L647.799 288.38H647.846L644.684 292.405C642.882 294.974 641.348 297.813 639.151 300.043C637.569 301.624 635.237 303.348 633.166 303.442C625.166 303.806 617.126 303.537 609.102 303.506C609.987 300.485 610.984 297.497 611.743 294.445C613.324 288.119 614.77 281.746 616.28 275.389C616.336 275.168 616.391 274.947 616.462 274.733C619.869 273.824 623.387 273.223 626.652 271.95C632.02 269.855 637.222 267.332 642.463 264.984L643.957 264.779H643.91C645.159 264.431 646.447 264.178 647.657 263.727C654.179 261.355 660.843 259.212 667.144 256.326C672.796 253.749 678.045 250.293 683.476 247.226C684.883 244.371 682.456 244.403 680.994 244.308C676.954 244.047 672.899 244.087 668.851 244.008C674.385 242.964 679.982 241.288 685.65 243.541L685.8 243.668L687.318 244.498L687.168 244.545C687.168 245.178 687.239 245.81 687.279 246.443L684.338 248.918L683.547 249.708H683.595L682.757 250.554L681.784 252.025V251.93L680.994 252.776V252.729L680.203 253.583L680.085 253.464L678.567 254.966V255.085L677.776 255.915H677.84L676.361 256.903Z" fill="#E7B554"/>
<path d="M616.304 275.35C614.794 281.675 613.339 288.072 611.766 294.405C610.976 297.457 610.011 300.446 609.126 303.466C581.23 303.545 553.329 303.627 525.423 303.711C510.68 303.711 495.944 303.624 481.2 303.577C481.2 303.316 481.153 303.055 481.137 302.786L482.718 302.668C514.957 302.668 547.192 302.668 579.425 302.668C581.125 302.668 584.255 301.561 584.279 300.873C584.398 297.797 584.5 294.152 582.99 291.709C580.619 287.811 576.824 284.751 573.773 281.217C573.172 280.521 573.188 279.287 572.919 278.307L583.117 276.892L608.319 275.714L616.304 275.35Z" fill="#CF8B2F"/>
<path d="M481.169 302.762C481.169 303.023 481.169 303.284 481.232 303.553C453.985 303.769 426.737 303.977 399.49 304.178C398.97 304.133 398.456 304.035 397.957 303.885C399.308 303.514 400.66 302.826 402.012 302.826C428.379 302.784 454.765 302.762 481.169 302.762Z" fill="#C3812A"/>
<path d="M642.518 264.945C637.245 267.317 632.043 269.815 626.707 271.911C623.442 273.183 619.924 273.784 616.517 274.694C611.142 274.306 605.766 273.769 600.382 273.571C589.86 273.191 579.291 273.492 568.816 272.583C560.179 271.83 551.624 270.322 543.25 268.076C534.19 265.64 531.661 260.651 533.107 251.361C533.345 249.78 533.566 248.198 533.898 246.696C534.691 243.698 534.814 240.562 534.26 237.51C533.705 234.459 532.486 231.567 530.688 229.04C528.807 226.022 527.322 222.775 526.269 219.378C519.004 198.315 514.261 176.84 515.802 154.338C515.984 151.728 516.372 150.044 519.297 150.005L525.384 156.607L526.032 157.484V157.445L527.708 159.817L527.668 159.769L529.336 162.268L529.787 162.916L531.708 165.431L532.206 166.126C537.107 172.072 542.014 178.016 546.926 183.956L548.365 185.743L550.626 189.032L563.962 202.426L564.84 203.32L566.318 204.79L567.243 205.66L567.978 206.324L569.646 207.906L570.437 208.657L574.326 212.025L579.994 216.587C580.026 216.676 580.079 216.756 580.148 216.82C580.216 216.885 580.299 216.932 580.39 216.959V216.903L582.255 218.319L582.326 218.105L583.117 218.999H583.054L585.425 220.691L585.346 220.612L588.935 223.253L589.133 223.355L597.276 228.55V228.503L601.228 230.954C611.877 236.907 622.502 243.328 635.008 244C646.297 244.601 657.641 244 669.001 244C673.049 244.079 677.104 244.039 681.144 244.3C682.606 244.395 685.033 244.363 683.626 247.218C672.306 251.962 660.977 256.706 649.696 261.45C647.749 262.424 645.866 263.522 644.06 264.739H644.107L642.518 264.945Z" fill="#FDF0AC"/>
<path d="M519.297 150.005C516.372 150.005 515.984 151.728 515.803 154.337C514.261 176.84 519.004 198.315 526.269 219.378C527.322 222.775 528.808 226.022 530.688 229.04C532.486 231.567 533.705 234.459 534.26 237.51C534.815 240.562 534.691 243.698 533.898 246.696C533.534 248.23 533.313 249.803 533.108 251.361C531.661 260.651 534.191 265.64 543.25 268.076C551.624 270.322 560.179 271.83 568.816 272.583C579.291 273.492 589.86 273.191 600.383 273.571C605.766 273.769 611.142 274.306 616.517 274.694C616.446 274.907 616.391 275.128 616.336 275.35L608.327 275.706C606.668 275.404 604.992 275.211 603.308 275.128C589.52 275.334 575.741 275.658 561.954 275.848C554.721 275.951 547.487 275.848 540.254 275.911C538.717 276.048 537.194 276.312 535.7 276.702H534.23H533.329L530.183 276.67C529.092 276.148 528.016 275.184 526.925 275.16C519.202 275.034 511.478 275.065 503.763 275.16C502.854 275.16 501.944 275.88 501.043 276.267C487.367 276.212 473.683 276.481 460.022 276.014C445.69 275.524 431.381 274.385 417.064 273.405C415.183 273.278 413.349 272.464 411.53 271.974L419.507 272.717L452.607 272.045C454.188 274.788 454.235 274.796 457.563 273.365L454.401 272.013L455.563 271.428L475.841 268.677L460.552 273.879C462.37 274.591 462.923 275.01 463.508 275.01C474.576 275.057 485.588 275.121 496.624 274.931C497.525 274.931 499.225 272.946 499.13 272.037C498.652 267.873 497.905 263.745 496.893 259.679C496.703 258.888 495.264 258.382 494.403 257.742C493.841 255.227 493.762 252.452 492.616 250.238C489.604 244.403 491.209 239.169 493.778 233.824L493.446 238.568C502.023 222.928 508.949 206.806 512.166 189.254C511.557 190.21 510.941 191.167 510.324 192.124C510.379 191.096 510.427 190.06 510.474 189.032C511.51 185.134 513.273 181.26 513.447 177.322C513.85 168.324 513.447 159.287 513.447 150.265C513.447 149.475 513.494 148.684 513.51 147.893C515.787 146.676 516.127 146.81 519.297 150.005Z" fill="#F3CB6C"/>
<path d="M510.482 188.953C510.435 189.981 510.387 191.017 510.332 192.045H510.419C509.628 194.156 508.838 196.275 508.047 198.37C507.778 199.161 507.51 199.951 507.257 200.742L505.676 204.695L503.304 210.27V210.214L501.723 214.168C501.462 214.958 501.193 215.749 500.932 216.54C500.664 217.077 500.395 217.615 500.142 218.121V218.081L499.351 219.71V219.663L497.77 223.664V223.616L496.98 226.067V226.028L495.565 226.992C494.244 224.32 492.774 221.711 491.612 218.959C489.09 212.8 486.75 206.561 484.307 200.37C482.726 196.417 481.098 192.464 479.493 188.51C484.637 182.132 489.786 175.749 494.94 169.36L494.869 169.139H494.64L495.77 168.348L496.244 167.644L497.146 166H497.027L497.92 165.209C499.501 163.161 500.964 161.042 502.664 159.097C505.146 156.235 507.786 153.507 510.356 150.716C514.079 159.833 513.059 169.257 512.063 178.651C511.684 182.106 511.012 185.521 510.482 188.953Z" fill="#C3812A"/>
<path d="M510.482 188.953C511.012 185.522 511.684 182.106 512.063 178.674C513.059 169.281 514.079 159.856 510.356 150.74L510.957 150.084L513.447 150.202C513.502 159.224 513.874 168.261 513.447 177.259C513.281 181.181 511.518 185.055 510.482 188.953Z" fill="#B26F20"/>
<path d="M513.431 150.163L510.941 150.044L513.494 147.791C513.478 148.581 513.455 149.372 513.431 150.163Z" fill="#C3812A"/>
<path d="M588.682 815.158C589.892 809.71 589.196 807.97 585.52 807.251L635.277 770.88C636.739 769.773 638.186 768.65 639.656 767.559C655.957 755.438 672.29 743.349 686.63 728.816C687.421 728.026 688.82 727.883 689.935 727.44L687.35 732.018L687.445 731.955L686.567 732.872L681.935 737.988L681.081 739.269L681.16 739.055L680.156 739.973C679.421 740.763 678.686 741.507 677.958 742.281L677.096 743.206L677.215 743.064L676.306 743.926L657.38 761.352L656.511 762.143L654.93 763.416L651.768 766.089C651.515 766.302 651.27 766.523 651.024 766.745C650.799 766.83 650.562 766.881 650.321 766.895L648.02 768.777L647.34 769.378L645.759 770.437H645.949L643.317 772.659L643.396 772.588L641.917 773.734L641.973 773.6L639.364 775.822L639.435 775.751L637.063 777.64L637.245 777.522L635.38 779.024L601.995 805.456L598.73 807.994L596.588 809.583L594.785 811.062L594.098 811.513L591.726 813.442H591.821L590.73 814.233L589.433 815.189L588.809 815.268L588.682 815.158Z" fill="#E7B554"/>
<path d="M580.88 821.594L586.722 816.96L586.169 817.751L583.797 819.72H583.931L582.738 820.605L580.88 821.594Z" fill="#E7B554"/>
<path d="M578.832 823.649L577.71 824.061L580.927 821.554C580.856 821.736 580.801 821.934 580.745 822.123C580.421 822.4 580.097 822.677 579.781 822.962L579.923 822.811L578.903 823.689L578.832 823.649Z" fill="#E7B554"/>
<path d="M648.044 768.714L650.345 766.832C650.223 767.047 650.125 767.275 650.052 767.512L648.044 768.714Z" fill="#F3CB6C"/>
<path d="M572.998 827.848C572.911 828.07 572.816 828.283 572.721 828.497C572.52 828.511 572.319 828.537 572.121 828.576L572.998 827.848Z" fill="#E7B554"/>
<path d="M587.576 816.391L588.706 815.158L588.817 815.253C588.755 815.46 588.681 815.663 588.596 815.861L587.576 816.391Z" fill="#E7B554"/>
<path d="M586.485 817.063C586.785 816.755 587.078 816.439 587.37 816.122C587.101 816.431 586.777 816.747 586.485 817.063Z" fill="#E7B554"/>
<path d="M620.968 395.943L620.304 396.852C614.66 405.36 614.351 414.121 619.434 421.427L620.707 423.356L621.885 424.526L623.063 425.759L624.644 427.27H624.692L627.324 429.294L629.696 430.693L636.905 435.595L640.708 438.054L644.7 440.426L648.163 442.403L648.447 442.561L653.396 445.178L662.377 450.254L662.487 450.452H662.717L663.815 450.982C671.144 455.386 678.591 459.608 685.753 464.265C689.484 466.693 692.718 469.887 696.18 472.733C693.666 473.817 694.86 475.469 695.571 476.971C700.267 486.918 700.402 496.533 693.129 505.356C690.884 507.911 688.344 510.191 685.563 512.148C682.401 514.52 678.907 516.537 675.555 518.711L671.452 512.504L670.741 511.619L669.784 510.369L669.594 510.203C668.899 508.622 668.511 506.732 667.452 505.42C664.804 502.162 662.203 498.731 658.977 496.106C644.629 484.419 630.257 472.749 615.498 461.553C605.655 454.081 596.193 446.53 591.362 434.67C588.066 426.574 588.595 418.857 594.414 412.152C597.742 408.301 601.268 404.395 605.402 401.525C611.363 397.39 617.964 394.164 624.288 390.551L622.573 393.634C622.051 394.386 621.506 395.16 620.968 395.943Z" fill="#FDF0AC"/>
<path d="M675.579 518.711C678.931 516.537 682.393 514.528 685.587 512.148C688.368 510.191 690.908 507.911 693.152 505.357C700.425 496.533 700.267 486.918 695.595 476.971C694.884 475.469 693.69 473.809 696.204 472.733L719.865 492.658L723.991 499.656C724.228 500.154 724.458 500.644 724.695 501.134V501.182C724.897 502.455 725.177 503.714 725.533 504.953C728.403 513.01 730.047 521.47 727.991 529.686C722.948 549.808 713.651 567.922 699.658 583.404C697.239 586.084 694.22 588.219 691.476 590.615C691.476 585.262 691.476 579.909 691.342 574.564C691.342 573.56 690.512 572.58 690.069 571.591C689.468 568.392 688.87 565.192 688.275 561.992C688.272 561.742 688.23 561.494 688.148 561.257L686.701 552.481C686.701 552.258 686.686 552.036 686.654 551.816L685.358 544.463L676.567 521.7L676.33 520.972V521.051C676.053 520.261 675.784 519.423 675.539 518.608L675.579 518.711Z" fill="#FADE83"/>
<path d="M479.485 188.51C481.066 192.464 482.726 196.417 484.299 200.37C486.742 206.561 489.043 212.8 491.604 218.959C492.735 221.711 494.205 224.32 495.557 226.992L495.501 226.882L494.553 230.021C494.347 230.811 494.134 231.602 493.928 232.345L493.786 233.816C491.217 239.129 489.612 244.395 492.624 250.23C493.77 252.444 493.849 255.219 494.41 257.734C492.901 259.315 491.383 260.896 489.865 262.422L476.023 268.748L475.849 268.653L455.579 271.396C459.334 269.19 459.777 267.696 458.156 263.426C457.366 261.236 455.872 258.896 456.077 256.753C457.01 247.044 451.705 239.018 449.255 230.274C447.065 222.454 446.725 221.964 453.121 216.745C455.666 214.666 457.571 211.811 459.769 209.305V209.463L460.631 208.617L460.575 208.68L461.421 207.826H461.326L462.844 206.846L462.623 206.791L462.67 206.577C465.421 206.972 465.998 205.225 466.149 203.059L466.101 203.106L470.007 199.042V199.184L470.892 198.236H470.773L475.303 193.381L475.398 193.428L476.37 192.084L479.485 188.51Z" fill="#CF8B2F"/>
<path d="M459.769 209.289C457.571 211.795 455.666 214.65 453.121 216.729C446.725 221.948 447.065 222.438 449.255 230.258C451.705 239.003 457.01 247.028 456.077 256.737C455.872 258.88 457.326 261.22 458.156 263.411C459.777 267.68 459.334 269.175 455.579 271.381L454.409 271.974H452.622L419.507 272.717C419.238 270.803 419.412 268.7 418.637 267.016C415.096 259.252 411.293 251.614 407.277 243.296C410.439 242.189 413.088 241.201 415.767 240.355C420.511 238.876 425.404 237.817 428.068 232.954V232.875C432.345 232.274 436.1 230.811 438.203 226.66H438.258L440.725 224.992V225.229L441.594 224.343H441.484L443.855 222.564L444.931 221.394L446.654 220.034L446.575 219.939L449.01 218.168L449.658 217.686L451.286 215.765L458.299 209.55L459.769 209.289Z" fill="#E1A747"/>
<path d="M475.279 193.373L470.75 198.228C470.793 198.022 470.793 197.809 470.75 197.603L475.279 193.373Z" fill="#E1A747"/>
<path d="M466.149 203.067C465.998 205.233 465.421 207.02 462.67 206.585L463.073 205.723L464.014 204.79L466.149 203.067Z" fill="#E1A747"/>
<path d="M469.991 199.05L466.085 203.138L467.003 201.754L467.88 200.821L469.342 199.319L469.991 199.05Z" fill="#E1A747"/>
<path d="M461.311 207.834C461.386 207.598 461.473 207.366 461.571 207.138L462.828 206.846L461.311 207.834Z" fill="#E1A747"/>
<path d="M703.232 710.671L702.386 712.252L700.805 714.624L699.176 716.956L689.911 727.354C688.796 727.796 687.381 727.947 686.607 728.729C672.266 743.238 655.934 755.328 639.633 767.472C638.162 768.563 636.716 769.686 635.253 770.793C635.088 769.499 634.824 768.22 634.463 766.966C633.055 763.147 632.557 758.807 626.644 758.641C624.446 758.577 622.035 756.047 620.249 754.142C618.075 751.817 616.454 748.971 614.604 746.354L619.846 741.61C633.99 728.668 646.521 714.067 657.167 698.123L659.033 695.751L659.823 694.169V694.217C660.1 693.671 660.377 693.125 660.614 692.58V692.635L661.452 691.845L662.242 690.263C662.519 689.726 662.788 689.18 663.033 688.682V688.729C663.309 688.184 663.578 687.638 663.823 687.093V687.14L664.614 686.349C664.875 685.812 665.144 685.274 665.404 684.768C665.673 684.238 665.934 683.701 666.195 683.187C666.985 681.605 667.776 680.024 668.567 678.443V678.332C668.835 677.802 669.096 677.265 669.357 676.751C669.626 676.221 669.887 675.683 670.148 675.169L672.519 669.635L673.31 667.263V667.31L674.1 665.729L674.891 664.147C675.16 663.357 675.421 662.566 675.681 661.775C675.942 661.238 676.211 660.708 676.472 660.194C676.741 659.403 677.002 658.613 677.263 657.822C677.523 657.031 677.792 656.241 678.053 655.45L678.844 653.869C679.104 652.809 679.373 651.742 679.634 650.706L680.425 649.125L680.274 649.045C686.599 649.591 691.887 652.287 696.757 656.162C697.777 656.952 699.919 657.648 700.852 657.118C704.995 654.699 709.224 654.865 713.73 655.371C715.948 655.617 718.189 655.205 720.173 654.185C723.802 652.145 727.059 649.441 730.513 647.108C730.83 646.895 731.454 647.108 732.505 647.164C731.778 649.718 731.162 651.908 730.497 654.145C728.916 659.39 727.314 664.622 725.691 669.84L725.754 669.69L724.964 671.485L725.082 671.429C721.509 673.303 720.663 676.45 720.987 680.127L721.09 680.048C716.853 681.85 716.157 685.511 716.125 689.536L714.497 691.908L714.536 691.86L713.121 694.319L713.382 694.391L713.319 694.651C712.687 695.616 712.057 696.581 711.43 697.545L711.477 697.387L710.544 699.071L710.6 699.008C710.109 699.554 709.627 700.099 709.137 700.637H709.477V700.977L708.552 702.361C708.528 702.325 708.507 702.288 708.489 702.25L707.54 703.902L707.627 703.847L707.271 704.432L706.773 705.515C706.402 706.179 705.983 706.844 705.643 707.508L703.232 710.671Z" fill="#E1A747"/>
<path d="M725.604 669.808C727.185 664.585 728.787 659.353 730.411 654.113C731.075 651.908 731.691 649.686 732.418 647.132C731.367 647.084 730.743 646.863 730.426 647.076C726.972 649.449 723.715 652.113 720.086 654.153C718.102 655.173 715.861 655.586 713.643 655.339C709.137 654.833 704.947 654.667 700.765 657.086C699.864 657.616 697.69 656.952 696.67 656.13C691.801 652.216 686.48 649.52 680.188 649.014C682.438 639.383 684.694 629.758 686.955 620.138C687.682 617.814 688.33 615.473 689.16 613.188C689.761 611.528 690.306 608.816 691.389 608.531C697.287 606.95 701.714 602.997 706.837 600.221C715.082 595.691 721.066 589.152 726.6 582.036C730.861 576.549 734.308 570.437 738.458 564.854C740.166 562.554 742.767 560.901 744.964 558.996C746.167 577.909 744.741 596.897 740.727 615.418C738.782 624.471 737.122 633.603 735.328 642.672L725.604 669.808Z" fill="#E7B554"/>
<path d="M716.046 689.512C716.046 685.511 716.774 681.85 721.011 680.024L716.046 689.512Z" fill="#E7B554"/>
<path d="M720.908 680.127C720.584 676.418 721.43 673.271 725.003 671.429L720.908 680.127Z" fill="#E7B554"/>
<path d="M711.382 697.49C712.004 696.525 712.634 695.561 713.272 694.596L711.382 697.49Z" fill="#E7B554"/>
<path d="M707.2 704.424L707.556 703.839C707.516 704.072 707.389 704.281 707.2 704.424Z" fill="#E7B554"/>
<path d="M744.964 558.94C742.767 560.87 740.166 562.498 738.458 564.799C734.308 570.381 730.861 576.493 726.6 581.981C721.066 589.097 715.082 595.667 706.837 600.166C701.714 602.973 697.287 606.918 691.39 608.476C690.306 608.761 689.761 611.473 689.16 613.133C688.37 615.418 687.682 617.758 686.955 620.075C688.046 610.244 689.131 600.416 690.212 590.591H691.516C694.259 588.219 697.279 586.06 699.698 583.38C713.691 567.899 722.987 549.784 728.031 529.662C730.086 521.447 728.442 512.986 725.572 504.929C725.217 503.691 724.937 502.431 724.734 501.158L726.877 502.115L728.458 506.068L729.873 508.559V508.495L730.79 510.077L730.735 510.006L731.343 511.002L731.272 511.168L732.45 513.168C732.845 514.006 733.241 514.844 733.628 515.683L733.683 515.801L734.814 517.944L735.272 518.94V519.225C740.949 531.828 743.794 545.167 744.964 558.94Z" fill="#F3CB6C"/>
<path d="M336.571 547.871L333.883 553.556C332.84 551.903 332.049 550.717 331.346 549.492C328.927 545.285 326.761 540.921 324.081 536.896C321.543 533.085 319.227 532.753 315.227 534.762C311.685 536.541 306.894 534.335 305.59 530.5C305.209 529.482 304.47 528.639 303.511 528.128C298.42 525.756 295.835 521.723 296.673 516.149C297.092 513.311 296.254 512.196 293.51 512.109C293.661 511.674 293.819 511.239 293.977 510.804H293.922C294.443 510.013 294.965 509.167 295.503 508.353H295.455L297.59 505.072C297.685 504.864 297.749 504.642 297.779 504.416L298.641 503.514V503.641L299.542 502.059L299.756 502.138L301.874 499.64C309.765 489.912 319.033 481.388 329.385 474.338L330.8 473.35L330.895 473.524L331.686 472.694L334.666 470.875V470.804L336.397 469.452V469.492L339.433 467.705L339.386 467.649C343.552 466.803 345.892 468.44 348.603 471.951C351.315 475.461 356.121 477.232 360.019 479.762C361.268 480.553 362.54 481.344 363.766 482.174C364.082 482.387 364.264 483.036 364.517 483.044C370.201 483.162 372.035 487.709 374.43 491.615C374.43 491.891 374.391 492.176 374.375 492.461H374.43L372.849 493.251L372.059 494.042L371.268 494.833L370.478 495.623L369.687 496.414L368.896 497.205L368.106 497.995L367.315 498.786L366.525 499.577L365.734 500.367L364.944 501.158L364.153 501.949L363.363 502.739L362.572 503.53L361.536 504.321L360.216 505.799C359.948 506.376 359.687 506.954 359.426 507.523L357.845 509.104L356.825 509.895C356.627 510.108 356.438 510.322 356.24 510.527C355.979 511.113 355.71 511.69 355.449 512.275C355.181 512.536 354.912 512.805 354.659 513.065L353.868 513.856L353.022 514.647L352.271 515.928L351.52 517.035V516.987C351.252 517.525 350.983 518.063 350.73 518.569L349.939 519.359L349.149 520.941L348.358 522.522L347.568 523.313L346.927 524.198L346.714 524.862L338.223 543.19L337.354 544.771L337.267 545.625C337.038 546.416 336.801 547.207 336.571 547.95V547.871Z" fill="#C3812A"/>
<path d="M724.695 501.134C724.458 500.644 724.229 500.154 723.991 499.656C724.229 500.154 724.466 500.644 724.695 501.134Z" fill="#F3CB6C"/>
<path d="M290.577 517.738C290.309 518.292 290.04 518.837 289.787 519.383C290.048 518.837 290.317 518.292 290.577 517.738Z" fill="#C3812A"/>
<path d="M291.582 514.789C291.774 514.708 291.961 514.616 292.143 514.512L291.352 516.236C291.439 515.754 291.495 515.271 291.582 514.789Z" fill="#C3812A"/>
<path d="M347.568 740.795L349.149 742.44C348.919 742.328 348.677 742.241 348.429 742.179L348.5 742.337L347.662 741.317C347.65 741.14 347.619 740.965 347.568 740.795Z" fill="#C3812A"/>
<path d="M360.683 753.794L361.023 754.213C360.93 754.186 360.848 754.131 360.787 754.056C360.726 753.981 360.69 753.89 360.683 753.794Z" fill="#C3812A"/>
<path d="M352.058 255.741C352.572 256.208 353.078 256.682 353.584 257.157L352.058 255.741Z" fill="#C3812A"/>
<path d="M350.73 254.603L352.24 255.456C351.726 255.164 351.22 254.887 350.73 254.603Z" fill="#C3812A"/>
<path d="M355.963 259.6L356.335 259.647L356.24 259.987C356.163 259.954 356.096 259.9 356.047 259.832C355.998 259.764 355.969 259.683 355.963 259.6Z" fill="#C3812A"/>
<path d="M353.267 244.885C351.346 244.885 349.275 244.45 347.544 245.028C346.247 245.462 345.386 247.194 344.326 248.356L342.034 247.289L339.749 245.043C339.67 244.506 339.599 243.976 339.528 243.462C339.599 243.236 339.657 243.007 339.702 242.774L350.769 242.062L353.267 244.885Z" fill="#C3812A"/>
<path d="M438.203 226.629C436.1 230.78 432.345 232.242 428.068 232.843L429.207 231.815H429.049L430.725 230.898L430.677 230.962L433.144 229.428H432.993L434.701 228.503L435.357 228.131L437.041 226.945V227.024L438.203 226.629Z" fill="#E7B554"/>
<path d="M374.367 492.476C374.367 492.192 374.406 491.907 374.422 491.63C374.645 491.624 374.868 491.597 375.086 491.551L375.252 491.749L374.367 492.476Z" fill="#E7B554"/>
<path d="M374.367 492.476L375.237 491.733L379.917 489.527L380.913 490.381C379.332 492.84 377.671 495.299 376.075 497.774C375.521 498.628 374.628 499.505 374.596 500.399C374.478 504.155 374.596 507.918 374.667 511.674C373.379 511.445 371.798 510.638 370.873 511.112C369.292 511.903 367.616 513.303 366.999 514.852C366.272 516.663 366.643 518.908 366.541 520.972C363.497 521.233 363.711 523.66 363.379 525.716L361.797 528.088C361.007 529.409 360.216 530.721 359.426 532.042C359.165 532.579 358.904 533.109 358.635 533.623C358.366 534.137 358.114 534.674 357.845 535.204L356.264 538.367C355.523 539.087 354.88 539.9 354.351 540.786C350.24 550.559 347.362 560.632 347.56 571.354C347.757 581.72 347.378 592.172 348.548 602.443C349.765 613.078 352.501 623.538 354.627 634.07C355.745 636.922 356.864 639.773 357.987 642.625L363.521 657.648C365.268 664.922 367.845 671.809 373.007 677.462L373.845 678.949L376.169 682.981C376.976 684.278 377.766 685.574 378.541 686.871L381.648 691.686C382.13 693.03 382.62 694.367 383.103 695.703C382.612 696.58 381.6 697.545 381.727 698.328C382.597 703.934 383.521 709.555 384.818 715.082C385.308 717.138 385.609 718.379 383.095 718.68L380.723 715.517H380.77L379.822 714.726L379.189 713.936L378.399 712.354L377.434 711.564L376.818 710.773L376.027 709.192L375.237 708.401V708.456L373.41 706.084L372.889 705.373L372.209 704.582C358.185 685.005 348.493 663.38 342.216 640.221C335.567 615.711 331.939 590.828 333.52 565.4C333.883 559.549 335.512 553.785 336.555 548.005H336.5C336.729 547.215 336.967 546.424 337.196 545.681C337.196 545.396 337.251 545.111 337.283 544.827C337.567 544.305 337.86 543.791 338.152 543.245L346.643 524.918L347.568 524.151C347.813 523.605 348.058 523.067 348.311 522.522L349.101 520.941L349.892 519.359L350.682 518.569C350.959 518.031 351.228 517.493 351.473 516.987V517.035L352.264 515.936L353.015 514.655L353.86 513.864L354.651 513.073C354.912 512.804 355.181 512.536 355.442 512.283C355.702 511.698 355.971 511.12 356.232 510.535C356.43 510.33 356.619 510.116 356.817 509.903L357.837 509.112L359.418 507.531C359.687 506.961 359.948 506.384 360.208 505.807L361.568 504.368L362.596 503.577L363.386 502.787L364.177 501.996L364.968 501.205L365.758 500.415L366.549 499.624L367.339 498.833L368.13 498.043L368.92 497.252L369.711 496.461L370.501 495.671L371.292 494.88L372.082 494.089C372.351 493.813 372.628 493.536 372.873 493.299L374.454 492.508L374.367 492.476Z" fill="#E1A747"/>
<path d="M381.561 486.918L382.62 487.574L382.185 488.001L381.537 486.95L381.561 486.918Z" fill="#E1A747"/>
<path d="M598.272 470.1L597.481 469.555L595.9 468.622V468.772L595.109 467.697L593.481 466.416L591.9 465.159L589.528 463.245L586.461 460.573C585.201 459.323 583.95 458.072 582.706 456.817L580.824 455.307C580.768 455.053 580.692 454.805 580.595 454.564L579.314 452.769C579.276 452.586 579.209 452.41 579.117 452.247L576.026 447.503L574.326 445.186H574.381L571.868 440.442H571.978C571.694 439.897 571.409 439.343 571.132 438.79L571.196 438.829L570.255 436.497L570.437 436.331L570.247 436.489L568.919 434.014V433.682C568.743 431.865 568.424 430.064 567.962 428.298C563.876 416.138 562.643 403.201 564.357 390.488C564.452 389.697 565.203 389.017 565.638 388.282L568.358 383.727C570.413 383.957 570.674 384.368 570.484 387.388C570.184 392.195 570.199 397.034 569.694 401.818C568.69 411.962 571.986 421.237 575.148 430.559C575.807 432.823 576.664 435.024 577.71 437.137C585.813 451.717 598.509 461.458 612.493 469.76C614.43 470.907 616.09 470.551 616.446 467.886C627.3 475.485 638.478 482.68 648.914 490.816C656.329 496.604 662.748 503.672 669.61 510.172L669.808 510.338L670.756 511.587L671.468 512.472L675.571 518.679V518.616C675.839 519.407 676.108 520.245 676.361 521.059V520.98C676.383 521.238 676.465 521.486 676.598 521.708L685.389 544.471C685.824 546.922 686.251 549.373 686.686 551.824C686.717 552.047 686.733 552.271 686.733 552.496L688.18 561.265C688.261 561.502 688.304 561.75 688.306 562C689.097 577.331 689.792 592.655 686.433 607.859C685.703 605.244 685.274 602.554 685.152 599.842C684.939 593.943 685.46 587.982 684.662 582.147C683.334 572.556 681.326 563.052 679.349 553.572C678.462 549.608 677.267 545.719 675.776 541.941C674.369 538.217 672.614 534.619 670.82 531.03C670.137 529.952 669.342 528.95 668.448 528.041L667.555 528.721V532.951L661.697 523.162V523.21L660.851 522.419L661.175 522.316L661.072 521.984L659.491 520.016L659.246 519.921L659.143 520.166L658.353 519.256C655.436 513.39 650.874 508.978 645.641 505.238C634.115 493.235 620.098 484.562 606.201 475.738L604.043 474.251L598.272 470.1Z" fill="#C3812A"/>
<path d="M616.422 467.886C616.083 470.543 614.422 470.907 612.47 469.76C598.469 461.458 585.773 451.717 577.686 437.137C576.64 435.024 575.783 432.823 575.125 430.559C571.962 421.237 568.666 411.962 569.67 401.818C570.144 397.074 570.128 392.195 570.46 387.388C570.65 384.368 570.389 383.957 568.334 383.727L565.614 388.282C565.18 389.017 564.429 389.705 564.334 390.487C562.619 403.201 563.853 416.138 567.939 428.297C568.4 430.064 568.72 431.865 568.895 433.682C563.614 422.889 562.215 411.338 562.318 399.517C562.318 395.738 562.571 391.95 562.705 388.171C565.014 381.988 565.014 381.972 572.192 381.909C574.01 381.909 575.82 381.996 577.639 382.043L578.232 383.506C575.069 402.806 577.046 421.355 586.39 438.805C587.186 440.102 587.976 441.399 588.761 442.696C588.983 442.964 589.196 443.241 589.41 443.486L589.513 443.668L591.781 446.688L591.955 446.87C592.092 446.992 592.227 447.118 592.358 447.25L593.528 448.934L595.774 451.425L602.232 457.489L603.023 458.509V458.469L604.493 459.316L605.41 460.051L606.138 460.596L608.509 462.415L610.146 463.403L610.833 464.012L611.624 464.605L612.818 465.578L613.996 466.202L615.577 467.167L616.415 467.958L616.422 467.886Z" fill="#CF8B2F"/>
<path d="M574.295 445.178L575.994 447.495L575.891 447.59C575.697 447.517 575.507 447.433 575.322 447.337V447.424L574.445 446.546H574.508C574.453 446.096 574.382 445.637 574.295 445.178Z" fill="#CF8B2F"/>
<path d="M570.223 436.513L571.164 438.845C570.856 438.07 570.54 437.288 570.223 436.513Z" fill="#CF8B2F"/>
<path d="M571.101 438.806C571.378 439.359 571.662 439.913 571.947 440.458L571.101 438.806Z" fill="#CF8B2F"/>
<path d="M455.461 330.91C460.307 331.005 465.161 331.061 469.999 331.211C476.916 331.44 483.825 331.851 490.742 331.962C494.11 332.025 497.486 331.582 500.853 331.369L498.6 332.808C487.153 332.808 475.675 332.721 464.251 332.863C462.836 332.863 461.437 334.073 460.022 334.721C461.01 335.797 461.809 337.362 463.026 337.845C466.836 339.355 468.188 341.924 467.769 345.87C467.35 349.641 467.184 353.452 466.908 357.248L464.773 357.951C460.465 358.007 456.164 358.046 451.864 358.125C440.037 358.347 428.213 358.579 416.392 358.821C416.621 356.678 416.819 354.528 417.08 352.385C417.238 351.104 417.87 349.752 417.657 348.574C416.772 344.36 418.906 341.814 422.108 339.829C427.143 336.714 427.167 336.761 424.305 331.693L434.582 331.156H441.634L447.919 331.314L455.461 330.91Z" fill="#CF8B2F"/>
<path d="M455.46 330.91L447.879 331.337L441.594 331.179H434.527C429.626 330.673 424.724 330.136 419.815 329.669C416.297 329.337 412.771 329.092 409.253 328.807C413.141 326.238 417.809 325.118 422.44 325.645C423.23 325.739 424.163 325.194 425.033 324.949C482.826 324.949 540.625 324.949 598.43 324.949C599.716 325.079 600.985 325.344 602.216 325.739H453.342C454.354 328.19 454.907 329.55 455.46 330.91Z" fill="#F3CB6C"/>
<path d="M425.041 324.901C424.171 325.146 423.278 325.692 422.448 325.597C417.817 325.07 413.149 326.19 409.261 328.76C399.617 328.167 389.972 327.542 380.32 327.004C374.976 326.704 369.624 326.546 364.272 326.332L363.631 324.751L417.934 324.83L425.041 324.901Z" fill="#E7B554"/>
<path d="M569.709 331.812C572.808 331.859 575.907 331.922 579.006 331.938C586.366 331.938 593.726 331.938 601.094 331.938C602.477 331.938 603.853 332.073 605.236 332.144C605.323 332.587 605.41 333.021 605.505 333.464C603.418 334.026 601.323 334.571 599.244 335.164C593.354 336.84 587.386 338.406 581.583 340.256C575.259 342.28 573.298 347.965 571.82 353.524C571.03 356.647 569.63 357.517 566.674 357.366C562.871 357.177 559.053 357.256 555.243 357.366C554.033 357.406 552.871 358.015 551.653 358.363L511.383 358.481L514.459 357.311C521.953 357.311 529.479 357.351 536.941 357.256C538.989 357.256 541.993 357.517 542.871 356.37C544.697 353.998 546.475 350.677 546.286 347.886C546.033 344.257 547.669 342.597 550.159 341.49C553.812 339.861 557.725 338.825 561.519 337.497C562.705 337.078 563.844 336.532 565.006 336.05L563.662 333.298L569.709 331.812Z" fill="#FADE83"/>
<path d="M514.466 357.366L511.391 358.536C496.181 358.536 480.974 358.536 465.769 358.536C465.429 358.536 465.089 358.181 464.749 357.983L466.884 357.279H489.525C489.019 354.401 489.098 351.911 488.141 349.918C485.446 344.312 487.114 340.383 493.114 338.453C496.489 337.37 499.691 335.741 503.509 334.136L498.6 332.808L500.853 331.345L525.36 331.306C524.127 331.796 522.909 332.658 521.652 332.721C517.621 332.903 513.565 332.784 509.518 332.784C512.98 333.575 516.451 333.472 519.905 333.638C520.886 333.693 521.826 334.54 522.791 335.03C522.056 335.979 521.518 337.402 520.546 337.821C511.209 342.296 509.075 348.835 514.466 357.366Z" fill="#E7B554"/>
<path d="M610.138 463.443L608.501 462.455L606.129 460.636L605.402 460.091L604.485 459.355L602.952 458.501V458.541L602.161 457.521L595.702 451.456L593.457 448.966L592.295 447.282C592.188 447.126 592.048 446.996 591.884 446.902L591.71 446.72L589.441 443.7L589.346 443.518L588.69 442.727C587.9 441.431 587.109 440.134 586.319 438.837C576.974 421.387 574.974 402.838 578.16 383.538L581.536 382.043H583.228L604.912 382.533H632.375L632.795 383.411L624.296 390.527C617.972 394.141 611.371 397.366 605.41 401.502C601.276 404.372 597.75 408.278 594.422 412.128C588.603 418.857 588.097 426.55 591.37 434.647C596.2 446.507 605.663 454.066 615.505 461.53C630.241 472.725 644.613 484.396 658.985 496.082C662.211 498.707 664.811 502.138 667.46 505.396C668.519 506.709 668.906 508.559 669.602 510.18C662.74 503.68 656.321 496.612 648.906 490.824C638.471 482.672 627.292 475.477 616.438 467.894V468.013L615.6 467.222L614.019 466.258L612.841 465.633L611.648 464.661L610.857 464.068L610.138 463.443Z" fill="#F3CB6C"/>
<path d="M581.568 382.011L578.192 383.506L577.599 382.043L581.568 382.011Z" fill="#E7B554"/>
<path d="M417.926 324.854L363.623 324.775C363.56 324.534 363.52 324.288 363.505 324.04L417.949 324.127C417.926 324.372 417.926 324.609 417.926 324.854Z" fill="#F3CB6C"/>
<path d="M575.963 814.328C575.718 814.525 575.473 814.723 575.235 814.928L574.303 815.909C556.595 830.441 538.894 844.982 521.202 859.53C518.996 861.357 517.17 863.65 515.17 865.729C512.949 864.148 510.545 862.82 508.538 860.985C491.146 845.528 474.189 829.627 456.465 814.596C444.164 804.16 431.017 794.695 417.997 785.152C401.68 773.181 384.913 761.835 368.723 749.69C360.446 743.491 352.975 736.249 345.243 729.291C340.445 724.997 335.891 720.435 331.148 716.079C329.385 714.45 328.776 713.232 330.358 710.797C332.532 707.421 333.441 703.578 331.061 699.625C330.429 698.573 330.397 697.118 330.215 695.829C329.852 693.173 329.567 690.5 329.243 687.725C347.112 703.969 366.187 718.834 386.304 732.193C387.095 729.156 387.593 727.061 388.122 724.966L388.676 725.559L391.047 728.903C391.975 729.699 392.903 730.49 393.83 731.275C393.927 731.288 394.015 731.335 394.08 731.408C394.146 731.48 394.183 731.573 394.186 731.671L395.395 732.872L398.162 735.656L399.332 736.834C400.834 738.107 402.36 739.348 403.838 740.661C410.526 746.599 416.827 753.05 423.965 758.403C438.575 769.362 453.65 779.751 468.512 790.346C477.272 796.624 485.983 802.997 494.727 809.323C500.687 813.613 506.656 817.893 512.633 822.163C514.214 821.815 515.992 821.871 517.202 821.04C521.083 818.376 524.712 815.34 528.499 812.525C535.859 807.045 543.258 801.621 550.634 796.182L551.511 795.328L553.82 793.746C555.053 794.703 556.278 796.435 557.535 796.466C561.583 796.561 562.887 799.566 564.713 802.167C566.698 805.013 568.619 807.907 570.793 810.611C571.417 811.402 572.777 811.639 573.844 811.963C575.061 812.327 576.342 812.509 577.599 812.754L575.963 814.328Z" fill="#C3812A"/>
<path d="M388.676 725.559L388.122 724.966L383.055 718.696C385.561 718.395 385.269 717.154 384.778 715.098C383.482 709.563 382.557 703.95 381.687 698.344C381.561 697.553 382.573 696.596 383.063 695.719H383.933L384.834 696.375L387.332 699.538L387.237 699.459L389.909 702.827C389.972 702.839 390.032 702.864 390.086 702.9C390.139 702.936 390.185 702.982 390.22 703.035C390.256 703.089 390.28 703.15 390.292 703.213C390.303 703.276 390.302 703.341 390.288 703.404L392.707 706.701L396.66 711.445C396.889 711.722 397.119 711.999 397.356 712.236L398.162 713.912L401 716.007L400.898 715.873L402.305 717.723C402.55 718 402.811 718.269 403.095 718.514L403.886 719.305L404.676 720.095L405.467 720.886C405.72 721.139 405.973 721.4 406.218 721.677L406.953 723.345L407.744 724.136L411.696 728.089L412.487 728.88L414.977 730.382L415.768 731.173L416.732 731.963L416.542 732.026L416.479 731.829L417.436 732.825L417.254 732.746L418.511 733.624L420.289 734.58L428.29 741.649L432.242 744.883L436.195 748.132L436.986 748.781L440.092 751.263L444.346 754.695C444.342 754.731 444.348 754.767 444.362 754.8C444.376 754.833 444.399 754.862 444.427 754.884C444.455 754.906 444.489 754.921 444.524 754.926C444.56 754.932 444.596 754.929 444.63 754.916L450.393 759.218V759.17L453.65 761.621L454.441 762.222L456.812 763.898L456.757 763.811L457.666 764.602L473.382 775.766L475.754 777.395L475.706 777.308L476.631 778.036H476.679L478.987 779.617H479.027L481.343 781.198L486.086 784.361L486.972 785.373L491.043 788.156H490.861L492.039 788.947L491.802 788.876L491.881 788.639L493.462 789.753L493.32 789.627L495.739 791.366L496.363 792.291L498.055 792.971L502.008 795.343L504.379 796.925L505.913 797.755L508.427 799.241L508.3 799.202L511.107 800.91L513.107 801.827L512.846 822.203C506.88 817.928 500.911 813.648 494.94 809.362C486.197 803.037 477.485 796.711 468.726 790.386C453.864 779.751 438.788 769.402 424.179 758.443C417.064 753.09 410.74 746.638 404.052 740.7C402.573 739.388 401.048 738.146 399.546 736.873L398.162 735.656L395.419 732.888L394.21 731.679C394.206 731.58 394.168 731.486 394.101 731.413C394.034 731.341 393.944 731.295 393.846 731.283L391.047 728.935L388.676 725.559Z" fill="#E7B554"/>
<path d="M575.963 814.327L577.615 812.746H578.405L575.963 814.327Z" fill="#E7B554"/>
<path d="M581.568 810.374L579.987 811.165L581.568 810.327V810.374Z" fill="#E7B554"/>
<path d="M583.939 808.793L582.358 809.584L583.844 808.658L583.939 808.793Z" fill="#E7B554"/>
<path d="M585.52 807.211L584.73 808.002L584.659 807.931L585.52 807.211Z" fill="#E7B554"/>
<path d="M584.73 808.002L583.939 808.793L583.829 808.643L584.619 807.923L584.73 808.002Z" fill="#E7B554"/>
<path d="M574.302 815.909L575.235 814.928C574.919 815.245 574.611 815.577 574.302 815.909Z" fill="#E7B554"/>
<path d="M572.872 278.299C573.14 279.28 573.124 280.513 573.725 281.209C576.777 284.743 580.532 287.803 582.943 291.701C584.453 294.144 584.35 297.789 584.232 300.865C584.232 301.553 581.069 302.66 579.378 302.66C547.15 302.749 514.914 302.749 482.671 302.66C481.09 299.157 479.548 295.623 477.817 292.183C476.898 290.609 475.879 289.096 474.765 287.653C473.975 286.514 473.232 285.368 472.141 283.699C475.54 282.909 478.275 281.794 481.05 281.652C494.07 280.995 507.027 278.544 520.158 280.284C522.332 280.576 524.672 279.169 526.965 279.074C529.953 278.947 532.973 279.572 535.961 279.493C548.294 279.2 560.594 278.726 572.872 278.299Z" fill="#C3812A"/>
<path d="M425.183 234.14L428.084 232.922C425.42 237.785 420.487 238.845 415.783 240.323C413.103 241.169 410.471 242.157 407.293 243.264C411.309 251.574 415.111 259.212 418.653 266.985C419.444 268.669 419.254 270.772 419.523 272.685L411.499 271.982H411.601L410.732 272.029C409.852 271.808 408.996 271.498 408.178 271.104C390.739 260.661 372.354 251.885 353.267 244.893L350.73 242.055L367.331 244.197L389.466 244.253C402.368 244.466 413.973 240.038 425.183 234.14Z" fill="#E7B554"/>
<path d="M535.669 276.71C537.162 276.32 538.685 276.056 540.222 275.919C547.456 275.832 554.689 275.959 561.923 275.856C575.71 275.666 589.489 275.342 603.276 275.136C604.96 275.219 606.637 275.412 608.296 275.714L583.093 276.892L564.12 276.963C563.997 276.902 563.862 276.871 563.725 276.871C563.588 276.871 563.453 276.902 563.33 276.963H560.911C560.795 276.906 560.668 276.877 560.539 276.877C560.41 276.877 560.283 276.906 560.168 276.963H553.796C553.674 276.903 553.541 276.868 553.405 276.86C553.27 276.852 553.134 276.871 553.005 276.915L547.392 277.042C547.293 276.97 547.175 276.927 547.052 276.917C546.93 276.907 546.807 276.931 546.697 276.987H541.819H538.167L535.669 276.71Z" fill="#FADE83"/>
<path d="M501.051 276.267C501.952 275.88 502.861 275.176 503.77 275.16C511.486 275.073 519.21 275.041 526.933 275.16C528.024 275.16 529.099 276.148 530.19 276.67L517.099 276.03L516.04 276.204L508.364 276.006L507.367 276.164L501.051 276.267Z" fill="#FADE83"/>
<path d="M546.784 277.01C546.894 276.955 547.017 276.931 547.139 276.941C547.262 276.95 547.38 276.994 547.479 277.066L547.124 277.176L546.784 277.01Z" fill="#CF8B2F"/>
<path d="M553.108 276.939C553.237 276.894 553.372 276.876 553.508 276.884C553.644 276.892 553.777 276.927 553.899 276.987L553.108 276.939Z" fill="#CF8B2F"/>
<path d="M560.223 276.971C560.339 276.914 560.466 276.885 560.594 276.885C560.723 276.885 560.85 276.914 560.966 276.971H560.223Z" fill="#CF8B2F"/>
<path d="M563.385 276.979C563.508 276.918 563.643 276.886 563.781 276.886C563.918 276.886 564.053 276.918 564.176 276.979H563.385Z" fill="#CF8B2F"/>
<path d="M514.467 357.366C509.075 348.835 511.178 342.28 520.57 337.845C521.542 337.386 522.079 336.002 522.815 335.054C521.85 334.563 520.909 333.717 519.929 333.662C516.475 333.496 513.004 333.599 509.542 332.808C513.589 332.808 517.645 332.927 521.676 332.745C522.933 332.682 524.151 331.82 525.384 331.33C538.459 331.519 551.535 331.704 564.611 331.883C566.31 331.883 568.01 331.844 569.717 331.82L563.67 333.354L565.014 336.105C563.852 336.588 562.713 337.133 561.527 337.552C557.733 338.881 553.82 339.924 550.167 341.545C547.677 342.652 546.041 344.312 546.294 347.942C546.483 350.733 544.713 354.054 542.879 356.426C542.001 357.572 538.997 357.287 536.95 357.311C529.455 357.406 521.961 357.359 514.467 357.366Z" fill="#F3CB6C"/>
<path d="M417.926 324.854C417.926 324.609 417.926 324.372 417.926 324.126L454.291 323.881H506.466L506.814 323.976L507.17 323.889H516.656H543.606L543.977 323.984L544.341 323.881L656.195 323.96C659.23 323.96 662.258 324.008 665.286 324.039C665.333 324.308 665.389 324.585 665.436 324.83C663.924 325.221 662.383 325.485 660.827 325.621C641.275 325.684 621.724 325.705 602.177 325.684C600.949 325.288 599.682 325.023 598.398 324.893C540.636 324.899 482.85 324.901 425.041 324.901L417.926 324.854Z" fill="#FADE83"/>
<path d="M643.965 264.755C645.771 263.538 647.654 262.44 649.601 261.466C660.882 256.651 672.211 251.978 683.531 247.234C678.1 250.301 672.851 253.757 667.199 256.334C660.874 259.22 654.234 261.331 647.712 263.735C646.502 264.154 645.214 264.407 643.965 264.755Z" fill="#E1A747"/>
<path d="M489.865 262.391C491.383 260.809 492.901 259.268 494.411 257.702C495.272 258.343 496.711 258.841 496.901 259.639C497.913 263.706 498.66 267.834 499.138 271.998C499.233 272.907 497.557 274.876 496.632 274.891C485.564 275.081 474.56 275.018 463.516 274.97C462.947 274.97 462.378 274.551 460.56 273.84L475.849 268.637L476.023 268.732C481.169 267.688 486.268 266.724 489.865 262.391Z" fill="#E7B554"/>
<path d="M493.817 233.784L493.96 232.314L496.972 225.988V226.067L497.762 223.656V223.703C498.3 222.367 498.829 221.031 499.343 219.702V219.75L500.134 218.121V218.161L500.924 216.579C501.193 215.789 501.462 214.998 501.715 214.207C502.242 212.879 502.769 211.561 503.296 210.254V210.309C504.087 208.454 504.877 206.596 505.668 204.735L507.249 200.782C507.51 199.991 507.778 199.2 508.039 198.41C508.83 196.299 509.62 194.18 510.411 192.084H510.356C510.972 191.128 511.589 190.171 512.198 189.214C508.98 206.767 502.055 222.889 493.478 238.528L493.817 233.784Z" fill="#E7B554"/>
<path d="M452.623 272.005H454.409L457.571 273.357C454.291 274.757 454.227 274.749 452.623 272.005Z" fill="#E7B554"/>
<path d="M496.98 226.02L493.968 232.345C494.173 231.554 494.387 230.764 494.592 230.021C494.901 228.985 495.201 227.941 495.509 226.905L495.565 227.016L496.98 226.02Z" fill="#F3CB6C"/>
<path d="M510.419 192.068C509.628 194.179 508.838 196.298 508.047 198.394C508.838 196.267 509.628 194.148 510.419 192.068Z" fill="#F3CB6C"/>
<path d="M505.676 204.719C504.88 206.58 504.089 208.438 503.304 210.293C504.063 208.411 504.853 206.553 505.676 204.719Z" fill="#F3CB6C"/>
<path d="M503.304 210.198C502.777 211.532 502.25 212.85 501.723 214.152C502.224 212.85 502.751 211.532 503.304 210.198Z" fill="#F3CB6C"/>
<path d="M499.351 219.694C498.814 221.023 498.284 222.359 497.77 223.695C498.26 222.359 498.79 221.023 499.351 219.694Z" fill="#F3CB6C"/>
<path d="M501.723 214.207C501.462 214.998 501.193 215.789 500.932 216.579C501.162 215.789 501.43 214.998 501.723 214.207Z" fill="#F3CB6C"/>
<path d="M508.047 198.394C507.779 199.184 507.51 199.975 507.257 200.766C507.478 199.975 507.747 199.184 508.047 198.394Z" fill="#F3CB6C"/>
<path d="M579.196 811.956L578.405 812.746H577.615C576.358 812.477 575.077 812.296 573.86 811.956C572.793 811.631 571.433 811.37 570.808 810.604C568.634 807.899 566.713 805.006 564.729 802.159C562.903 799.558 561.567 796.553 557.551 796.458C556.294 796.458 555.069 794.695 553.835 793.739L569.923 781.198L611.608 748.702H612.399L613.189 747.611L614.557 746.354C616.415 748.971 618.035 751.817 620.209 754.142C621.996 756.047 624.407 758.577 626.605 758.641C632.518 758.807 633.016 763.147 634.423 766.966C634.784 768.22 635.048 769.499 635.214 770.793L585.52 807.212L584.682 807.955L583.892 808.674L582.358 809.584L581.568 810.374L579.987 811.212L579.196 811.956Z" fill="#CF8B2F"/>
<path d="M611.608 748.702L569.923 781.119L553.835 793.659L551.527 795.241L550.649 796.095C543.266 801.534 535.866 806.958 528.514 812.438C524.728 815.253 521.099 818.289 517.217 820.953C516.008 821.744 514.19 821.744 512.648 822.076L512.909 801.701L514.49 800.119L516.862 798.538L518.443 797.534L519.312 796.949L520.103 796.458L523.992 793.794L526.364 792.212L528.736 790.631L533.479 787.421L536.926 785.049C537.02 785.046 537.112 785.022 537.196 784.978C537.279 784.934 537.352 784.872 537.408 784.796L538.285 784.195L539.005 783.768L542.957 781.056L547.764 777.893L550.017 776.138L550.847 775.482L550.808 775.521L553.314 774.019H553.108L554.744 773.133L555.535 772.596L558.009 770.809L559.417 769.765L560.27 769.164V769.251L565.014 766.01L566.595 764.95L567.282 764.412C568.381 763.701 569.535 763.06 570.555 762.254C583.041 752.434 595.513 742.598 607.972 732.746L609.205 731.955L609.142 732.011L609.987 731.157L609.932 731.228C610.193 730.896 610.454 730.572 610.723 730.24C610.991 729.907 611.213 729.797 611.45 729.567L612.327 728.721L615.426 725.654L616.288 724.8L620.106 720.846L621.814 719.202V719.32L622.604 718.474V718.514L623.442 717.684L623.221 717.589L624.802 715.905H625V716.102L625.79 715.264L625.735 715.32C626.012 714.758 626.288 714.205 626.573 713.643L627.213 712.924L628.186 712.133L627.996 712.062L630.257 709.555H630.486V709.959L631.277 709.105H630.968V708.796C633.34 709.057 633.648 707.713 633.34 705.831V705.705L635.791 702.7L635.957 702.89C636.226 702.329 636.494 701.767 636.747 701.214L636.7 701.317L637.577 700.471H637.467L640.407 696.359V696.264L642.257 693.299L642.724 692.556L643.862 691.765L643.799 691.821L644.589 690.121V690.239L645.459 689.393L645.198 689.441L645.151 689.18L646.961 686.167V686.294L647.854 685.44L647.609 685.503L647.546 685.258C648.076 684.467 648.597 683.716 649.127 682.949L649.072 682.673C652.329 681.763 655.712 675.557 654.922 671.967V672.078C655.214 671.516 655.499 670.955 655.783 670.394L655.704 670.48L656.59 669.627L656.321 669.563L656.677 668.148C664.634 650.564 670.6 632.146 674.464 613.236C674.851 612.88 675.531 612.572 675.587 612.176C676.685 603.993 677.958 595.833 678.685 587.61C680.045 571.662 677.239 556.189 672.274 541.095C671.318 538.193 669.112 535.687 667.531 532.99V528.76L668.424 528.08C669.318 528.99 670.114 529.992 670.796 531.069C672.559 534.659 674.345 538.256 675.753 541.98C677.243 545.759 678.438 549.647 679.326 553.611C681.302 563.099 683.278 572.587 684.638 582.186C685.429 587.998 684.915 593.983 685.128 599.881C685.25 602.594 685.68 605.283 686.409 607.899C689.769 592.686 689.081 577.363 688.283 562.04C688.883 565.239 689.482 568.439 690.077 571.638L690.409 585.736C690.409 586.029 690.409 586.329 690.346 586.622L690.18 590.654C689.094 600.485 688.009 610.313 686.923 620.138C684.672 629.769 682.417 639.396 680.156 649.022L680.306 649.101L679.516 650.682C679.247 651.742 678.978 652.809 678.725 653.845L677.934 655.426C677.666 656.217 677.397 657.007 677.144 657.798C676.875 658.589 676.614 659.379 676.353 660.17C676.085 660.708 675.816 661.238 675.563 661.751C675.294 662.542 675.025 663.333 674.772 664.123L673.982 665.705C673.705 666.242 673.436 666.788 673.191 667.286V667.239L672.401 669.611L670.029 675.145C669.76 675.683 669.499 676.221 669.238 676.727C668.97 677.264 668.709 677.802 668.448 678.308V678.269C667.657 679.85 666.867 681.431 666.076 683.013C665.808 683.55 665.547 684.088 665.286 684.594C665.017 685.132 664.748 685.669 664.495 686.175L663.705 686.966V686.919C663.436 687.464 663.167 688.01 662.914 688.555V688.508C662.645 689.045 662.377 689.591 662.124 690.089L661.333 691.67L660.495 692.461V692.406C660.226 692.951 659.95 693.497 659.705 694.042V693.995L658.914 695.576L657.048 697.948C646.402 713.893 633.871 728.494 619.727 741.435L614.486 746.179L613.11 747.445L612.32 748.528V748.48L611.608 748.702Z" fill="#B26F20"/>
<path d="M690.441 585.689L690.109 571.591C690.552 572.579 691.358 573.56 691.382 574.564C691.532 579.909 691.492 585.262 691.516 590.615H690.212L690.378 586.59C690.401 586.282 690.425 585.981 690.441 585.689Z" fill="#FDF0AC"/>
<path d="M686.71 551.824C686.275 549.373 685.848 546.922 685.413 544.471C685.832 546.914 686.259 549.365 686.71 551.824Z" fill="#B26F20"/>
<path d="M676.432 521.051C676.156 520.261 675.887 519.423 675.642 518.608C675.855 519.407 676.124 520.237 676.432 521.051Z" fill="#FDF0AC"/>
<path d="M676.606 521.7C676.472 521.479 676.391 521.23 676.369 520.972L676.606 521.7Z" fill="#FDF0AC"/>
<path d="M489.865 262.391C486.268 266.724 481.169 267.688 476.022 268.716L489.865 262.391Z" fill="#F3CB6C"/>
<path d="M495.47 226.858C495.161 227.894 494.861 228.937 494.553 229.973C494.861 228.953 495.161 227.91 495.47 226.858Z" fill="#C3812A"/>
<path d="M459.753 209.463C459.749 209.219 459.798 208.976 459.896 208.752C460.129 208.679 460.371 208.634 460.615 208.617L459.753 209.463Z" fill="#E1A747"/>
<path d="M470.141 198.394C470.376 198.306 470.62 198.243 470.868 198.204L469.983 199.184C470.013 198.917 470.066 198.652 470.141 198.394Z" fill="#E1A747"/>
<path d="M441.745 223.79L442.654 223.15L443.871 222.596L441.5 224.375L441.745 223.79Z" fill="#E7B554"/>
<path d="M439.397 225.411L440.725 225L438.258 226.66L439.397 225.411Z" fill="#E7B554"/>
<path d="M666.1 683.076C666.891 681.495 667.681 679.913 668.472 678.332C667.689 679.913 666.891 681.495 666.1 683.076Z" fill="#E7B554"/>
<path d="M678.757 653.821C679.017 652.762 679.286 651.694 679.547 650.658C679.286 651.686 679.017 652.754 678.757 653.821Z" fill="#E7B554"/>
<path d="M674.804 664.1C675.065 663.309 675.334 662.518 675.594 661.728C675.334 662.518 675.073 663.309 674.804 664.1Z" fill="#E7B554"/>
<path d="M675.594 661.728C675.855 661.19 676.124 660.66 676.385 660.146C676.124 660.653 675.855 661.182 675.594 661.728Z" fill="#E7B554"/>
<path d="M669.27 676.751C669.539 676.221 669.8 675.683 670.061 675.169C669.8 675.667 669.539 676.205 669.27 676.751Z" fill="#E7B554"/>
<path d="M668.479 678.332C668.748 677.802 669.009 677.264 669.27 676.75C669.009 677.249 668.748 677.786 668.479 678.332Z" fill="#E7B554"/>
<path d="M665.317 684.657C665.586 684.128 665.847 683.59 666.108 683.076C665.847 683.574 665.586 684.112 665.317 684.657Z" fill="#E7B554"/>
<path d="M664.527 686.239C664.788 685.701 665.057 685.163 665.317 684.657C665.057 685.155 664.788 685.693 664.527 686.239Z" fill="#E7B554"/>
<path d="M662.147 690.192C662.424 689.654 662.693 689.109 662.938 688.611C662.693 689.101 662.424 689.646 662.147 690.192Z" fill="#E7B554"/>
<path d="M337.212 545.586C336.982 546.377 336.745 547.167 336.516 547.911C336.745 547.136 336.982 546.361 337.212 545.586Z" fill="#B26F20"/>
<path d="M338.168 543.174C337.875 543.696 337.583 544.21 337.298 544.756L338.168 543.174Z" fill="#B26F20"/>
<path d="M347.567 524.151L346.643 524.839L346.856 524.174C347.085 524.174 347.307 524.174 347.536 524.127L347.567 524.151Z" fill="#E7B554"/>
<path d="M348.358 522.569C348.105 523.115 347.86 523.653 347.615 524.198C347.615 523.913 347.615 523.637 347.575 523.36L348.358 522.569Z" fill="#E7B554"/>
<path d="M351.52 516.987C351.251 517.525 350.983 518.063 350.73 518.569C350.967 518.063 351.236 517.525 351.52 516.987Z" fill="#E7B554"/>
<path d="M356.263 510.528C356.003 511.113 355.734 511.69 355.473 512.275C355.702 511.69 355.971 511.113 356.263 510.528Z" fill="#E7B554"/>
<path d="M360.216 505.799C359.948 506.377 359.687 506.954 359.426 507.523C359.663 506.954 359.924 506.377 360.216 505.799Z" fill="#E7B554"/>
<path d="M347.512 523.297C347.512 523.574 347.512 523.85 347.552 524.135C347.322 524.135 347.101 524.135 346.872 524.182L347.512 523.297Z" fill="#E1A747"/>
<path d="M355.473 512.291C355.204 512.552 354.935 512.821 354.682 513.081C354.92 512.797 355.188 512.528 355.473 512.291Z" fill="#E7B554"/>
<path d="M372.865 493.314C372.588 493.583 372.311 493.86 372.074 494.105L372.865 493.314Z" fill="#E7B554"/>
<path d="M576.034 447.495L579.125 452.239C578.935 452.214 578.748 452.177 578.563 452.128L576.943 449.717V449.788L576.073 448.918L576.168 449.005L575.907 447.582L576.034 447.495Z" fill="#CF8B2F"/>
<path d="M354.619 634.054C352.524 623.522 349.757 613.062 348.54 602.427C347.37 592.149 347.749 581.704 347.552 571.338C347.354 560.617 350.232 550.543 354.343 540.771C354.877 539.895 355.523 539.092 356.264 538.383L356.54 538.612C355.528 541.184 354.514 543.749 353.497 546.305C347.062 564.095 347.963 582.494 349.742 600.783C350.801 611.915 353.481 622.985 355.473 634.054H354.619Z" fill="#E7B554"/>
<path d="M374.667 511.69L373.363 513.556C372.628 514.41 371.893 515.256 371.165 516.11L369.371 518.316H369.521C369.236 518.656 368.968 519.003 368.73 519.351L368.888 519.217L368.011 520.197V520.118L366.746 521.225L366.541 520.988C366.643 518.924 366.272 516.679 366.999 514.868C367.616 513.287 369.315 511.927 370.873 511.128C371.798 510.654 373.379 511.5 374.667 511.69Z" fill="#E7B554"/>
<path d="M372.96 677.478C367.813 671.825 365.236 664.938 363.473 657.664L363.544 657.616C365.294 661.169 367.044 664.716 368.793 668.259C370.19 671.311 371.592 674.363 372.999 677.415L372.96 677.478Z" fill="#F3CB6C"/>
<path d="M363.489 657.664L357.955 642.641L358.026 642.594L363.56 657.616L363.489 657.664Z" fill="#F3CB6C"/>
<path d="M354.619 634.054H355.41C356.279 636.901 357.152 639.747 358.026 642.593L357.955 642.641C356.827 639.779 355.715 636.916 354.619 634.054Z" fill="#F3CB6C"/>
<path d="M363.378 525.732C363.695 523.661 363.481 521.233 366.541 520.988L366.786 521.202L363.537 525.866L363.378 525.732Z" fill="#E7B554"/>
<path d="M381.64 691.702L378.533 686.887L378.604 686.84C379.521 688.02 380.436 689.204 381.347 690.39L381.703 691.647L381.64 691.702Z" fill="#F3CB6C"/>
<path d="M376.122 682.997L373.798 678.964H373.869L375.031 680.166L374.976 680.119L376.185 682.973L376.122 682.997Z" fill="#F3CB6C"/>
<path d="M383.933 695.727H383.087C382.604 694.391 382.114 693.054 381.632 691.71L381.695 691.655L382.952 692.762C383.442 693.616 383.925 694.47 384.407 695.331L383.933 695.727Z" fill="#F3CB6C"/>
<path d="M378.533 686.887C377.737 685.59 376.947 684.294 376.161 682.997L376.225 682.934L377.379 684.096V684.025L378.359 685.606V685.567L378.715 686.847L378.533 686.887Z" fill="#F3CB6C"/>
<path d="M359.426 532.057C360.216 530.745 361.007 529.432 361.797 528.104L362.027 528.31L359.695 532.263L359.426 532.057Z" fill="#E7B554"/>
<path d="M356.263 538.383L357.845 535.22L358.011 535.37L356.516 538.588L356.263 538.383Z" fill="#E7B554"/>
<path d="M361.797 528.104L363.378 525.732L363.521 525.851C363.023 526.641 362.525 527.48 362.019 528.294L361.797 528.104Z" fill="#E7B554"/>
<path d="M357.844 535.22C358.113 534.691 358.374 534.161 358.635 533.639L358.833 533.813L358.042 535.394L357.844 535.22Z" fill="#E7B554"/>
<path d="M358.635 533.639C358.888 533.109 359.149 532.579 359.426 532.058L359.702 532.295L358.849 533.829L358.635 533.639Z" fill="#E7B554"/>
<path d="M373.798 678.964L372.96 677.478L373.015 677.415L373.869 678.925L373.798 678.964Z" fill="#F3CB6C"/>
<path d="M586.311 438.806C587.107 440.102 587.897 441.399 588.682 442.696C587.913 441.399 587.122 440.102 586.311 438.806Z" fill="#C3812A"/>
<path d="M591.845 446.87C592.009 446.964 592.149 447.094 592.256 447.25L591.845 446.87Z" fill="#C3812A"/>
<path d="M498.6 332.808L503.51 334.105C499.691 335.686 496.49 337.339 493.114 338.422C487.114 340.351 485.446 344.281 488.142 349.887C489.098 351.879 489.019 354.37 489.525 357.248H466.884C467.161 353.453 467.327 349.642 467.746 345.87C468.188 341.917 466.837 339.355 463.002 337.845C461.785 337.362 460.986 335.797 459.998 334.722C461.413 334.073 462.813 332.879 464.228 332.863C475.698 332.745 487.153 332.808 498.6 332.808Z" fill="#E1A747"/>
<path d="M396.708 711.445L392.755 706.701L392.842 706.63L394.17 707.674C394.47 708.045 394.779 708.409 395.087 708.781C395.077 708.827 395.079 708.875 395.09 708.921C395.102 708.967 395.124 709.01 395.154 709.047C395.184 709.083 395.222 709.112 395.266 709.132C395.309 709.152 395.356 709.161 395.403 709.16C395.719 709.516 396.028 709.872 396.336 710.236L396.573 710.054L396.352 710.251C396.51 710.623 396.66 711.003 396.818 711.374L396.708 711.445Z" fill="#F3CB6C"/>
<path d="M411.601 728.192L407.649 724.238L408.21 723.645L409.206 724.294V724.23C409.499 724.531 409.783 724.831 410.076 725.124L409.997 725.068L412.25 727.614L411.601 728.192Z" fill="#F3CB6C"/>
<path d="M386.968 698.328C387.087 698.731 387.213 699.119 387.34 699.53L384.842 696.367L384.944 696.288L386.209 697.411V697.348C386.486 697.664 386.755 697.988 387 698.312L386.968 698.328Z" fill="#F3CB6C"/>
<path d="M500.142 793.659C500.19 793.751 500.268 793.823 500.363 793.865C500.458 793.907 500.564 793.915 500.664 793.889L501.905 795.17L501.842 795.264L497.889 792.892L498.071 792.679L500.142 793.659Z" fill="#F3CB6C"/>
<path d="M390.296 703.396L391.64 704.527L392.431 705.571L392.328 705.515C392.478 705.903 392.636 706.306 392.795 706.662L392.708 706.733L390.296 703.396Z" fill="#F3CB6C"/>
<path d="M400.431 714.956L400.953 716.031L398.162 713.912L398.723 713.359L400.431 714.956Z" fill="#F3CB6C"/>
<path d="M507.439 798.301L508.229 799.162L505.676 797.676L505.755 797.605L507.281 798.214L507.439 798.301Z" fill="#F3CB6C"/>
<path d="M504.174 796.846L501.802 795.264L501.865 795.169L504.332 796.624L504.174 796.846Z" fill="#F3CB6C"/>
<path d="M493.098 789.556L494.41 789.983L495.58 791.184L495.509 791.287L493.098 789.556Z" fill="#F3CB6C"/>
<path d="M400.858 715.897L401.704 716.403L402.344 717.644L402.265 717.747L400.858 715.897Z" fill="#F3CB6C"/>
<path d="M414.827 730.516L412.336 729.014L412.89 728.381L414.874 730.445L414.827 730.516Z" fill="#F3CB6C"/>
<path d="M406.858 723.448L406.068 721.819L406.139 721.771L407.404 722.902L406.858 723.448Z" fill="#F3CB6C"/>
<path d="M398.162 713.912L397.443 712.244L397.514 712.196L398.154 712.362L398.739 713.366L398.162 713.912Z" fill="#F3CB6C"/>
<path d="M497.834 792.9L496.142 792.22L496.632 791.698L498.015 792.687L497.834 792.9Z" fill="#F3CB6C"/>
<path d="M505.676 797.676L504.142 796.846L504.316 796.625L505.581 797.004C505.657 797.199 505.718 797.4 505.763 797.605L505.676 797.676Z" fill="#F3CB6C"/>
<path d="M397.372 712.268C397.135 711.999 396.905 711.722 396.676 711.477L396.739 711.39L397.443 712.252L397.372 712.268Z" fill="#F3CB6C"/>
<path d="M384.842 696.375L383.932 695.727L384.383 695.315L384.936 696.304L384.842 696.375Z" fill="#F3CB6C"/>
<path d="M403.024 718.569C402.771 718.293 402.51 718.024 402.233 717.779L402.312 717.676L403.04 718.522L403.024 718.569Z" fill="#F3CB6C"/>
<path d="M403.807 719.36L403.016 718.569L403.064 718.49C403.324 718.751 403.585 719.02 403.854 719.281L403.807 719.36Z" fill="#F3CB6C"/>
<path d="M404.565 720.182L403.775 719.392L403.83 719.312L404.581 720.143L404.565 720.182Z" fill="#F3CB6C"/>
<path d="M405.332 721.028L404.542 720.237L404.589 720.166L405.38 720.957L405.332 721.028Z" fill="#F3CB6C"/>
<path d="M406.068 721.819C405.823 721.558 405.57 721.297 405.317 721.028L405.364 720.957C405.625 721.226 405.878 721.495 406.155 721.748L406.068 721.819Z" fill="#F3CB6C"/>
<path d="M407.601 724.23L406.811 723.44L407.412 722.855L408.155 723.645L407.601 724.23Z" fill="#F3CB6C"/>
<path d="M412.336 728.974L411.546 728.184L412.147 727.599L412.874 728.334L412.336 728.974Z" fill="#F3CB6C"/>
<path d="M415.641 731.244L414.851 730.453L414.898 730.382L415.689 731.173L415.641 731.244Z" fill="#F3CB6C"/>
<path d="M416.344 731.307L416.582 732.019L415.617 731.228V731.149L416.281 731.268L416.344 731.307Z" fill="#F3CB6C"/>
<path d="M416.344 731.884C416.669 732.216 416.993 732.54 417.309 732.872C416.993 732.548 416.669 732.216 416.344 731.884Z" fill="#F3CB6C"/>
<path d="M496.142 792.189L495.517 791.264L495.588 791.161L496.632 791.667L496.142 792.189Z" fill="#F3CB6C"/>
<path d="M612.399 748.702L613.189 747.619C612.92 747.982 612.652 748.346 612.399 748.702Z" fill="#E1A747"/>
<path d="M674.891 558.83L674.772 557.343C674.29 555.722 673.8 554.101 673.318 552.489C673.309 552.261 673.288 552.034 673.254 551.809C673.254 551.018 673.199 550.188 673.167 549.373C671.302 543.897 669.439 538.415 667.578 532.927C669.159 535.623 671.373 538.13 672.322 541.032C677.286 556.126 680.093 571.599 678.733 587.547C678.037 595.77 676.733 603.93 675.634 612.113C675.579 612.508 674.899 612.817 674.511 613.173C674.883 609.623 675.247 606.057 675.626 602.522C676.116 598.015 676.614 593.503 677.12 588.986V585.033C677.12 583.182 677.12 581.332 677.12 579.498C676.846 575.023 676.583 570.542 676.33 566.056C676.401 565.826 676.456 565.591 676.496 565.353L676.583 564.056C676.614 564.037 676.639 564.01 676.657 563.978C676.675 563.947 676.684 563.911 676.684 563.874C676.684 563.838 676.675 563.802 676.657 563.77C676.639 563.738 676.614 563.711 676.583 563.692L675.737 561.961C675.725 561.723 675.669 561.49 675.571 561.273L674.891 558.83Z" fill="#C3812A"/>
<path d="M649.159 682.609C651.109 679.046 653.059 675.478 655.009 671.904C655.799 675.509 652.416 681.7 649.159 682.609Z" fill="#C3812A"/>
<path d="M637.569 700.423C638.55 699.048 639.532 697.677 640.518 696.312C639.532 697.682 638.55 699.053 637.569 700.423Z" fill="#C3812A"/>
<path d="M631.055 708.733L633.427 705.768C633.743 707.65 633.411 708.994 631.055 708.733Z" fill="#C3812A"/>
<path d="M647.641 685.195C648.171 684.404 648.692 683.653 649.222 682.886C648.692 683.653 648.171 684.428 647.641 685.195Z" fill="#C3812A"/>
<path d="M654.977 672.006C655.27 671.445 655.554 670.884 655.839 670.322C655.554 670.892 655.27 671.453 654.977 672.006Z" fill="#C3812A"/>
<path d="M625.751 715.494C626.028 714.932 626.304 714.379 626.589 713.817C626.304 714.355 626.028 714.909 625.751 715.494Z" fill="#C3812A"/>
<path d="M636.036 702.843C636.305 702.281 636.573 701.72 636.826 701.167C636.573 701.704 636.305 702.266 636.036 702.843Z" fill="#C3812A"/>
<path d="M609.972 731.307C610.233 730.975 610.493 730.651 610.762 730.319C610.493 730.659 610.233 730.983 609.972 731.307Z" fill="#CF8B2F"/>
<path d="M690.441 585.689C690.441 585.981 690.441 586.282 690.378 586.582C690.401 586.282 690.425 585.981 690.441 585.689Z" fill="#F3CB6C"/>
</g>
<path d="M485.884 784.337L494.447 789.983L493.134 789.556L493.276 789.682L491.695 788.567L491.616 788.804L491.853 788.868L490.675 788.117H490.857L486.737 785.349L485.884 784.337Z" fill="#9D6546"/>
<path d="M386.986 698.328L391.659 704.527L390.315 703.396C390.329 703.333 390.33 703.268 390.318 703.205C390.306 703.142 390.282 703.082 390.247 703.028C390.211 702.974 390.166 702.928 390.112 702.892C390.059 702.856 389.998 702.831 389.935 702.819L387.263 699.451L387.358 699.53C387.231 699.127 387.113 698.731 386.986 698.328Z" fill="#9D6546"/>
<path d="M507.477 798.301L514.49 800.182L512.909 801.764L510.908 800.847L508.101 799.139L508.228 799.178L507.477 798.301Z" fill="#9D6546"/>
<path d="M432.047 744.867C434.364 744.733 435.787 745.705 436 748.117L432.047 744.867Z" fill="#9D6546"/>
<path d="M416.368 731.307L420.163 734.643L418.416 733.679L417.15 732.801C417.212 732.83 417.275 732.853 417.34 732.872C417.024 732.54 416.7 732.216 416.376 731.884L416.439 732.082L416.629 732.011L416.368 731.307Z" fill="#9D6546"/>
<path d="M368.825 668.259C370.896 672.217 372.97 676.171 375.047 680.119L373.885 678.917L373.031 677.407C371.624 674.36 370.222 671.311 368.825 668.259Z" fill="#9D6546"/>
<path d="M378.265 685.559L381.372 690.39L378.621 686.84L378.265 685.559Z" fill="#9D6546"/>
<path d="M381.365 690.39L382.946 692.762L381.689 691.655L381.365 690.39Z" fill="#9D6546"/>
<path d="M374.992 680.079L377.364 684.096L376.209 682.934L374.992 680.079Z" fill="#9D6546"/>
<path d="M384.962 696.296L384.409 695.307C383.927 694.446 383.444 693.592 382.954 692.738L386.227 697.419L384.962 696.296Z" fill="#9D6546"/>
<path d="M671.802 549.452C668.622 548.977 665.376 549.593 662.591 551.199C657.317 554.117 651.521 552.267 645.931 551.698C628.307 549.903 610.707 547.863 593.059 546.384C579.072 545.214 565.045 544.589 551.019 543.965C535.656 543.285 520.293 542.834 504.923 542.383C484.863 541.798 464.796 541.395 444.745 540.739C436.759 540.478 428.789 539.411 420.803 539.316C413.734 539.237 406.65 540.106 399.566 540.344C398.332 540.391 397.067 539.671 395.818 539.3C414.003 538.509 432.268 537.284 450.493 537.054C483.385 536.651 516.277 536.849 549.169 536.793H551.588C562.903 537.086 574.233 537.157 585.532 537.742C600.46 538.533 615.419 539.142 630.252 540.857C642.848 542.32 655.277 545.23 667.778 547.499L671.802 549.452Z" fill="#9D6546"/>
<path d="M673.233 549.373C673.233 550.164 673.289 550.994 673.32 551.808L671.739 549.381L673.233 549.373Z" fill="#9D6546"/>
<path d="M655.831 653.726C654.811 656.889 654.352 660.423 652.668 663.214C645.441 675.074 640.081 688.192 630.205 698.32C622.298 706.393 614.684 714.782 606.082 722.04C593.929 732.264 581.452 742.242 568.28 751.074C552.237 761.835 535.332 771.307 518.799 781.325C514.459 783.95 509.833 783.001 505.888 781.072C497.752 777.119 489.964 772.438 482.057 768.002C477.637 765.519 473.122 763.155 468.947 760.309C465.397 757.882 462.345 754.774 458.938 752.078C443.369 739.957 428.418 727.124 414.826 712.782C394.782 691.631 379.016 667.761 368.967 640.245C363.163 624.313 359.613 607.938 359.479 590.955C359.4 582.487 359.787 574.011 360.214 565.543C360.299 563.304 360.961 561.125 362.135 559.217C363.124 557.739 365.298 556.054 366.88 556.134C377.609 556.869 388.315 558.047 399.02 559.099C409.299 560.111 419.673 561.02 429.975 562.198C443.535 563.779 457.079 565.543 470.632 567.235C474.016 567.662 477.392 568.31 480.792 568.484C485.536 568.729 488.493 570.927 490.525 575.165C494.091 582.613 497.696 590.077 501.784 597.249C510.561 612.651 519.06 628.132 531.735 641.044C547.904 657.498 566.967 668.512 589.272 673.201C612.945 678.182 633.897 671.366 651.846 655.229C652.783 654.471 653.759 653.764 654.771 653.109L655.831 653.726Z" fill="#9D6546"/>
<path d="M408.184 723.637L407.441 722.847L406.176 721.716C405.915 721.455 405.662 721.186 405.385 720.925L404.595 720.135L403.844 719.305C403.575 719.044 403.314 718.775 403.053 718.514L402.326 717.668L401.685 716.427C404.173 719.062 406.658 721.698 409.141 724.333L408.184 723.637Z" fill="#9D6546"/>
<path d="M676.365 566.056C676.644 570.532 676.907 575.012 677.155 579.498C676.902 575.012 676.639 570.532 676.365 566.056Z" fill="#9D6546"/>
<path d="M416.368 731.307L415.703 731.188L414.913 730.397L412.928 728.334L412.201 727.598L409.947 725.052L416.368 731.307Z" fill="#9D6546"/>
<path d="M496.668 791.698L495.625 791.192L494.454 789.99L500.155 793.659L498.052 792.687L496.668 791.698Z" fill="#9D6546"/>
<path d="M505.65 797.004L504.385 796.624L501.918 795.17L500.677 793.889L505.65 797.004Z" fill="#9D6546"/>
<path d="M677.171 585.032V588.986C675.178 587.681 675.178 586.361 677.171 585.032Z" fill="#9D6546"/>
<path d="M673.384 552.488C673.866 554.07 674.356 555.722 674.839 557.343C674.356 555.722 673.866 554.101 673.384 552.488Z" fill="#9D6546"/>
<path d="M398.704 713.383L398.119 712.378L400.491 714.956L398.704 713.383Z" fill="#9D6546"/>
<path d="M392.821 706.63C392.663 706.25 392.505 705.839 392.355 705.483L394.15 707.674L392.821 706.63Z" fill="#9D6546"/>
<path d="M397.494 712.22L396.79 711.358C396.632 710.987 396.482 710.607 396.324 710.236L398.135 712.386L397.494 712.22Z" fill="#9D6546"/>
<path d="M505.824 797.605C505.78 797.4 505.719 797.199 505.643 797.004L507.35 798.214L505.824 797.605Z" fill="#9D6546"/>
<path d="M395.059 708.765C394.751 708.393 394.443 708.029 394.142 707.658C394.443 708.029 394.751 708.377 395.059 708.765Z" fill="#9D6546"/>
<path d="M410.042 725.116C409.75 724.824 409.465 724.523 409.172 724.223C409.433 724.523 409.718 724.824 410.042 725.116Z" fill="#9D6546"/>
<path d="M655.941 557.359L632.221 557.296C632.917 556.805 633.581 555.928 634.301 555.88C639.835 555.493 645.425 555.09 650.984 555.09C652.66 555.137 654.297 556.568 655.941 557.359Z" fill="#C47E58"/>
<path d="M481.993 565.266L499.325 566.934C498.748 567.369 498.131 568.215 497.593 568.167C492.944 567.772 488.306 567.269 483.678 566.657C483.085 566.594 482.571 565.772 481.993 565.266Z" fill="#C47E58"/>
<path d="M353.501 546.289L366.555 542.984L376.043 541.624H377.625L379.206 541.45L393.438 540.035C393.666 539.98 393.899 539.948 394.134 539.94L395.012 539.276H395.866C397.115 539.648 398.38 540.367 399.613 540.32C406.729 540.051 413.782 539.213 420.851 539.292C428.837 539.387 436.807 540.454 444.792 540.715C464.844 541.371 484.911 541.775 504.97 542.36C520.341 542.81 535.704 543.261 551.067 543.941C565.093 544.566 579.12 545.19 593.107 546.361C610.755 547.839 628.355 549.879 645.979 551.674C651.569 552.243 657.365 554.093 662.638 551.176C665.423 549.57 668.67 548.954 671.85 549.428L673.431 551.856C673.464 552.081 673.485 552.308 673.494 552.536C673.977 554.117 674.467 555.77 674.949 557.39L675.068 558.877L675.708 561.328C675.806 561.545 675.862 561.778 675.874 562.016L676.72 563.747C676.751 563.767 676.777 563.793 676.795 563.825C676.813 563.857 676.822 563.893 676.822 563.929C676.822 563.966 676.813 564.002 676.795 564.033C676.777 564.065 676.751 564.092 676.72 564.111L676.633 565.408C676.594 565.646 676.538 565.881 676.467 566.112C676.747 570.587 677.01 575.067 677.258 579.553C677.258 581.403 677.258 583.253 677.258 585.088C675.265 586.416 675.265 587.736 677.258 589.041C676.757 593.558 676.259 598.071 675.764 602.577C675.384 606.127 675.02 609.693 674.649 613.228C670.784 632.138 664.817 650.556 656.859 668.14L656.503 669.555L656.772 669.618L655.886 670.472L655.965 670.385C655.681 670.947 655.396 671.508 655.103 672.07V671.959C653.158 675.533 651.208 679.101 649.252 682.665L649.308 682.941C648.786 683.732 648.264 684.523 647.726 685.25L647.79 685.495L648.035 685.432L647.141 686.286V686.159L645.331 689.172L645.378 689.433L645.639 689.385L644.769 690.231V690.113L643.979 691.813L644.042 691.757L642.903 692.548L642.437 693.291L640.587 696.256V696.351C639.601 697.722 638.618 699.092 637.637 700.463H637.748L636.87 701.309L636.918 701.206C636.641 701.759 636.372 702.321 636.127 702.882L635.961 702.692L633.51 705.697V705.823L631.138 708.788V709.097H631.446L630.656 709.951V709.721H630.426L628.165 712.228L628.355 712.291L627.382 713.082L626.742 713.801C626.457 714.363 626.181 714.916 625.904 715.477L625.959 715.422L625.168 716.26V716.063H624.971L623.389 717.747L623.611 717.842L622.773 718.672V718.632L621.982 719.478V719.36L620.282 721.004L616.463 724.958L612.502 728.879L611.624 729.725C611.387 729.955 611.142 730.176 610.897 730.397C610.652 730.619 610.383 731.054 610.106 731.386L610.161 731.315L609.315 732.169L609.379 732.113L608.145 732.904C595.679 742.74 583.205 752.576 570.723 762.412C569.703 763.202 568.548 763.859 567.449 764.57L566.761 765.108L565.18 766.167L560.436 769.409V769.33L559.582 769.923L558.175 770.967L555.7 772.754L554.909 773.291L553.273 774.177H553.407L550.901 775.679L550.94 775.64L550.11 776.296L547.857 778.051L543.049 781.214L539.096 783.926L538.376 784.353L537.499 784.954C537.441 785.03 537.368 785.093 537.283 785.137C537.198 785.18 537.104 785.204 537.008 785.207L533.569 787.579L528.825 790.789L524.081 793.952L520.191 796.616L519.4 797.106L518.53 797.692L516.949 798.696L514.577 800.277L507.564 798.395L507.437 798.308L505.73 797.099L500.756 793.983C500.656 794.01 500.55 794.001 500.455 793.96C500.361 793.918 500.283 793.846 500.234 793.754L494.534 790.085L485.971 784.44L481.227 781.277L478.91 779.696H478.87L476.562 778.115H476.514L475.589 777.387L475.637 777.474L473.264 775.845L457.483 764.554L456.573 763.764L456.629 763.851L454.257 762.175L453.466 761.574L450.208 759.123V759.17L444.444 754.869C444.411 754.881 444.374 754.884 444.339 754.879C444.303 754.873 444.27 754.858 444.241 754.836C444.213 754.814 444.19 754.785 444.176 754.752C444.162 754.719 444.156 754.683 444.16 754.647L439.906 751.216L436.799 748.733L436.008 748.085C435.763 745.713 434.34 744.701 432.055 744.835L428.101 741.601L420.1 734.533L416.368 731.307L409.932 725.084L410.011 725.139C409.718 724.847 409.433 724.546 409.141 724.246V724.309C406.658 721.674 404.173 719.038 401.685 716.403L400.839 715.897L400.934 716.031L400.412 714.956L398.04 712.378L396.229 710.227L396.451 710.03L396.213 710.212C395.905 709.848 395.597 709.492 395.28 709.136C395.233 709.137 395.186 709.128 395.143 709.108C395.1 709.088 395.061 709.059 395.031 709.023C395.001 708.986 394.979 708.943 394.967 708.897C394.956 708.851 394.955 708.803 394.964 708.757C394.656 708.385 394.347 708.021 394.047 707.65L392.252 705.46L392.355 705.515L391.564 704.471L386.891 698.272C386.615 697.948 386.346 697.624 386.101 697.308V697.371L382.827 692.69L381.246 690.318C380.218 688.737 379.182 687.1 378.147 685.487V685.527L377.166 683.945V684.017L374.794 680L374.849 680.047C372.773 676.094 370.698 672.141 368.627 668.187C366.872 664.645 365.122 661.098 363.377 657.545L357.842 642.522C356.972 639.676 356.1 636.829 355.225 633.983C353.272 622.913 350.592 611.844 349.524 600.711C348.006 582.478 347.065 564.08 353.501 546.289ZM632.221 557.311C627.477 557.588 622.796 557.889 618.084 558.102C607.204 558.648 596.325 559.264 585.445 559.683C568.382 560.292 551.32 561.012 534.249 561.201C510.695 561.462 487.141 561.281 463.587 561.304C462.148 561.304 460.701 561.431 459.262 561.502V562.561L463.002 562.988L464.622 563.621L466.18 563.684L470.133 564.475L471.778 564.546L480.412 565.266L481.993 565.266C482.555 565.748 483.069 566.57 483.678 566.657C488.3 567.263 492.939 567.767 497.593 568.167C498.131 568.215 498.748 567.377 499.325 566.934C502.195 567.234 505.073 567.487 507.943 567.835C526.714 570.12 545.469 572.579 564.255 574.675C578.345 576.256 591.351 579.909 602.769 589.144C614.795 598.877 625.303 609.765 632.972 623.143C637.716 631.374 641.377 640.205 645.623 649.021C646.414 646.989 647.505 644.689 648.217 642.285C655.435 618.035 659.365 593.319 658.179 567.962C658.013 564.404 656.685 560.901 655.894 557.375C654.249 556.584 652.613 555.137 650.96 555.121C645.425 555.121 639.835 555.509 634.277 555.912C633.605 555.943 632.941 556.821 632.221 557.311ZM655.807 653.726L654.755 653.046C653.743 653.7 652.767 654.407 651.83 655.165C633.882 671.303 612.929 678.094 589.256 673.137C566.951 668.448 547.888 657.434 531.719 640.98C519.068 628.069 510.545 612.587 501.768 597.185C497.68 590.014 494.075 582.55 490.509 575.101C488.477 570.863 485.488 568.665 480.776 568.42C477.376 568.246 474 567.63 470.616 567.171C457.064 565.479 443.519 563.7 429.959 562.134C419.681 560.956 409.323 560.047 399.005 559.035C388.299 557.983 377.593 556.805 366.864 556.07C365.282 555.959 363.1 557.651 362.12 559.154C360.945 561.061 360.283 563.24 360.198 565.479C359.771 573.947 359.408 582.423 359.463 590.891C359.621 607.875 363.171 624.25 368.951 640.182C378.969 667.697 394.735 691.575 414.81 712.718C428.402 727.061 443.353 739.893 458.922 752.014C462.329 754.671 465.381 757.818 468.932 760.245C473.106 763.092 477.629 765.456 482.041 767.939C489.948 772.374 497.736 777.047 505.872 781.008C509.825 782.938 514.443 783.886 518.784 781.261C535.316 771.244 552.221 761.771 568.264 751.01C581.436 742.178 593.913 732.2 606.066 721.977C614.668 714.742 622.314 706.353 630.189 698.257C640.065 688.128 645.425 675.019 652.652 663.151C654.36 660.423 654.811 656.904 655.831 653.726H655.807Z" fill="#C47E58"/>
<path d="M655.942 557.359C656.732 560.885 658.061 564.388 658.227 567.946C659.413 593.303 655.483 618.019 648.264 642.269C647.553 644.641 646.461 647.013 645.671 649.006C641.393 640.19 637.717 631.358 633.02 623.127C625.351 609.772 614.835 598.885 602.816 589.128C591.399 579.893 578.392 576.256 564.303 574.659C545.516 572.524 526.762 570.104 507.991 567.819C505.121 567.471 502.243 567.218 499.373 566.918L481.994 565.265H480.412L471.826 564.475H470.134L466.18 563.684L464.694 563.645L463.112 563.012L459.373 562.585V561.526C460.812 561.454 462.258 561.328 463.698 561.328C487.252 561.328 510.806 561.486 534.36 561.225C551.431 561.035 568.493 560.316 585.556 559.707C596.436 559.32 607.315 558.703 618.195 558.126C622.939 557.888 627.62 557.588 632.332 557.335L655.942 557.359ZM640.919 570.057L640.982 570.002L644.018 565.59C642.571 564.688 641.235 563.36 639.662 562.98C637.232 562.405 634.73 562.187 632.237 562.332C622.006 562.941 611.798 563.913 601.559 564.427C590.49 564.965 579.42 565.06 568.398 565.463C563.259 565.653 558.12 566.127 552.996 566.467L552.901 567.716L572.067 570.508L573.775 570.697L577.618 571.338L603.805 575.236C612.265 575.315 620.78 575.963 629.177 575.236C633.218 574.872 637.021 571.875 640.919 570.073V570.057Z" fill="#CA8B69"/>
<path d="M640.99 570.01C637.716 569.029 634.475 567.938 631.17 567.092C628.679 566.46 626.102 566.159 623.571 565.693C621.421 565.297 619.254 564.443 617.135 564.562C609.853 564.973 602.595 565.756 595.328 566.333C594.166 566.42 592.957 566.08 591.81 566.08C582.006 566.08 572.201 566.08 562.397 566.08L562.334 567.377L572.075 570.54L552.909 567.748L553.004 566.499C558.135 566.159 563.283 565.708 568.406 565.495C579.476 565.092 590.545 564.997 601.567 564.459C611.846 563.961 622.014 562.973 632.245 562.364C634.738 562.219 637.239 562.437 639.669 563.012C641.251 563.392 642.579 564.72 644.026 565.622L640.99 570.01Z" fill="#D6A58A"/>
<path d="M603.812 575.252C604.516 574.84 605.283 574.546 606.081 574.382C613.988 574.185 621.998 574.461 629.889 573.781C633.644 573.457 637.25 571.362 640.958 570.073C637.052 571.876 633.249 574.872 629.217 575.228C620.788 575.979 612.272 575.331 603.812 575.252Z" fill="#D6A58A"/>
<path d="M603.812 575.252L577.665 571.354L573.822 570.713L572.114 570.524L562.373 567.361L562.437 566.064C572.241 566.064 582.045 566.064 591.85 566.064C593.028 566.064 594.222 566.404 595.368 566.317C602.634 565.74 609.893 564.957 617.175 564.546C619.294 564.428 621.46 565.281 623.611 565.677C626.141 566.143 628.719 566.467 631.209 567.076C634.514 567.922 637.756 569.013 641.029 569.994L640.966 570.049C637.29 571.338 633.684 573.433 629.897 573.757C621.99 574.437 614.028 574.161 606.09 574.358C605.286 574.529 604.517 574.831 603.812 575.252Z" fill="#D09879"/>
<defs>
<linearGradient id="paint0_linear_599_8056" x1="512" y1="0" x2="512" y2="1024" gradientUnits="userSpaceOnUse">
<stop stop-color="#F3F0E4"/>
<stop offset="0.504808" stop-color="#EDE8D0"/>
<stop offset="1" stop-color="#EDE2D1"/>
</linearGradient>
<clipPath id="clip0_599_8056">
<rect width="468" height="729" fill="white" transform="translate(278 147)"/>
</clipPath>
</defs>
</svg>
